<?xml version="1.0" encoding="utf-8"?>
<!-- Generator: Adobe Illustrator 22.1.0, SVG Export Plug-In . SVG Version: 6.00 Build 0)  -->
<svg version="1.1" id="Layer_1" xmlns="http://www.w3.org/2000/svg" xmlns:xlink="http://www.w3.org/1999/xlink" x="0px" y="0px"
	 width="180px" height="204px" viewBox="0 0 180 204" enable-background="new 0 0 180 204" xml:space="preserve">
<g>
	<path fill-rule="evenodd" clip-rule="evenodd" fill="#218D21" d="M-0.5,0h181v191.7c0,6.8-5.6,12.4-12.4,12.4H11.9
		c-6.8,0-12.4-5.6-12.4-12.4V0z"/>
	<path fill-rule="evenodd" clip-rule="evenodd" fill="#F2E1C3" d="M55.7,34.4c0.2-1-0.5-1.5-1-0.2c-0.6,1.6-1.8,5.7-1.8,5.7
		s-3.1,9.4-4.4,19.6c-1.2,10.2-1,11.4,1.8,19.4c2.8,8,6.3,16,7.2,23.9c0.5,4.3,0.8,11,0.8,17.7h5.2c-0.1-2.1-0.2-4.2-0.3-6
		c-0.3-12.6-0.7-26.4,0.5-35.9c0.6-5.6,1.9-14.4,2.9-21.8c0.9-6.3,2-12.7,2.7-19.1c0.1-0.5,0.3-2.3-0.2-2.5
		c-0.5-0.2-0.9,1.8-0.9,1.6c-2.4,8.1-5.4,24.5-6.7,33.2c-0.2,1.2-0.6,2.7-1.2,0.8c-0.2-0.5-0.1-2.9,0.1-6.1
		c0.6-10.1,2.3-18,4.5-27.9c0.1-0.6,0.4-1.7,0.1-2.1c-0.2-0.4-0.7-0.8-1.4,1.6c-1.4,4.7-3.9,14.5-4.8,20.8c-0.6,4.2-1.1,7.5-1.4,10
		c-0.2,1.8-0.1,4.9-0.4,6.4c-0.2,0.7-0.6,1-1,0.2c-1.8-3.4,1.4-24.1,2.4-28.3c1.4-6.2,1.9-8.8,2.1-9.8c0.1-0.5,0.4-1.4,0-1.8
		c-0.2-0.2-0.5-0.2-1,1.1C58,39,53.9,56.7,53.1,62.6c-0.3,2.6-0.5,4.1-0.7,5c0,0.2-0.2,1.7-0.3,2c-0.1,0.6-0.8,1.1-1.1,0.1
		c-0.1-0.4-0.2-2-0.2-2.5c0.1-5.1,1.9-19.6,2.9-24C54.4,40.7,55.3,36.4,55.7,34.4L55.7,34.4z M55.2,176.7c0.2,4.2,0.6,8.1,0.8,9
		c0.4,1.8,1.5,1.4,2.8,2c1.3,0.6,7.4,1.8,13.3,0.8c2.3-0.8,1.3-1.3,0.7-3.7c-0.2-0.9-1-4.1-1.8-8.1H55.2z M119.8,176.7l1.1,7.4
		c0,0,0.8,1.3-1.3,2.4c-2.1,1.1-8.2,2.4-11.8,2.2c-1.6-0.1-2-0.8-2.2-1.6c-0.1-0.5,0.1-5.5,0.2-10.4l0-0.1H119.8z M112.2,120.6
		c0.9-6.4,1.5-12.1,1.9-16c1.6-16-0.8-20.7-5.2-31c-2.1-5.1-3.6-10.2-4.3-15.5c-1-7.4,0-17.3,5.6-23.9c7.4-8.7,18.5,6.6,20.2,16
		c1,5.9,0.6,13.3-4.1,28.5c-2.6,8.4-5.3,12.1-7.2,21.5c-1.1,5.3-1.9,12.5-2.4,20.3H112.2z M89.1,17c-0.9-2.9-2.3-5.2-4-1.2
		c-1.6,4-4.2,17.6-3.8,41.3c0.1,4.2,0.3,7.7,0.4,10.6c0.2,9.2,0.1,16.8-0.3,25.8c-0.2,3.7-0.2,6,0.7,6.7c1.3,1,5.5,3.3,6.5,13
		c0.3,2.5,0.5,4.8,0.8,7.4h6.3c-0.1-1.2-0.2-2.2-0.3-3.2c-2-18-2.6-16.1-2.1-23.9C94.8,73.7,95.1,35.8,89.1,17L89.1,17z M82.5,176.7
		c-0.7,2.2-1.1,3.9-1.1,6.3c-0.1,2.1,0,3.5,0.1,4.4c0.3,2.3,1,2.2,2.8,2.2c2.5-0.1,7.5-1.2,8.4-2.4c0.3-0.5,0.8-4.5,1.3-10.4H82.5z"
		/>
	<path fill="#FFFFFF" d="M16.3,147.7h3.1l1.2-3.1h5.8l1.2,3.1h3.1L25,133.9h-2.8L16.3,147.7z M21.7,142l1.8-4.5l1.8,4.5H21.7z
		 M33,147.7h3v-4.4h2.3l3,4.4h3.5l-3.4-4.9c1.8-0.7,2.9-2,2.9-4.3c0-1.3-0.4-2.4-1.2-3.2c-0.9-0.9-2.3-1.4-4-1.4H33V147.7z
		 M36,140.7v-3.9h3c1.5,0,2.4,0.7,2.4,2c0,1.2-0.9,2-2.3,2H36z M53.6,148c2.6,0,4.2-0.8,5.6-2.4l-1.9-2c-1.1,1-2,1.6-3.6,1.6
		c-2.4,0-4-2-4-4.3c0-2.4,1.7-4.3,4-4.3c1.6,0,2.5,0.6,3.5,1.5L59,136c-1.3-1.2-2.7-2.2-5.3-2.2c-4.2,0-7.1,3.2-7.1,7.1
		C46.6,144.8,49.6,148,53.6,148L53.6,148z M67.9,148c4.2,0,7.3-3.2,7.3-7.1c0-3.9-3-7.1-7.3-7.1c-4.2,0-7.3,3.2-7.3,7.1
		C60.6,144.8,63.7,148,67.9,148L67.9,148z M67.9,145.2c-2.4,0-4.1-2-4.1-4.3c0-2.4,1.7-4.3,4.1-4.3s4.1,2,4.1,4.3
		C72,143.3,70.4,145.2,67.9,145.2L67.9,145.2z M77.9,147.7h6.5c3.1,0,5.1-1.2,5.1-3.7c0-1.9-1-2.8-2.6-3.4c1-0.5,1.8-1.4,1.8-2.9
		c0-1-0.3-1.8-0.9-2.4c-0.8-0.8-2-1.2-3.6-1.2h-6.3V147.7z M80.8,139.5v-2.9h3c1.3,0,2,0.5,2,1.4c0,1.1-0.9,1.5-2.2,1.5H80.8z
		 M80.8,145.1v-3h3.5c1.6,0,2.2,0.6,2.2,1.5c0,1-0.8,1.5-2.1,1.5H80.8z M90.9,147.7H94l1.2-3.1h5.8l1.2,3.1h3.1l-5.9-13.8h-2.8
		L90.9,147.7z M96.3,142l1.8-4.5l1.8,4.5H96.3z M107.5,147.7h9.9V145h-6.8v-11h-3V147.7z M119.7,147.7h10.5V145h-7.5v-2.9h6.5v-2.7
		h-6.5v-2.8h7.3V134h-10.3V147.7z M132.8,147.7h3V139l6.6,8.7h2.6V134h-3v8.4l-6.4-8.4h-2.8V147.7z M155,148c4.2,0,7.3-3.2,7.3-7.1
		c0-3.9-3-7.1-7.3-7.1c-4.2,0-7.3,3.2-7.3,7.1C147.7,144.8,150.7,148,155,148L155,148z M155,145.2c-2.4,0-4.1-2-4.1-4.3
		c0-2.4,1.7-4.3,4.1-4.3c2.4,0,4.2,2,4.2,4.3C159.1,143.3,157.4,145.2,155,145.2L155,145.2z"/>
	<path d="M17.5,164.6h1.1v-1.8l1-1l2.2,2.9h1.4l-2.7-3.6l2.6-2.7h-1.4l-3,3.2v-3.2h-1.1V164.6z M24.1,164.6h4.8v-1h-3.7v-1.7h3.2v-1
		h-3.2v-1.6h3.6v-1h-4.7V164.6z M32.9,157.8c0.8,0,1.3-0.5,1.4-1.3l-0.7-0.1c-0.1,0.4-0.3,0.6-0.8,0.6c-0.4,0-0.6-0.2-0.7-0.6
		l-0.7,0.1C31.6,157.3,32.1,157.8,32.9,157.8L32.9,157.8z M30.1,164.6h1.1l3.2-4.6v4.6h1.1v-6.4h-1l-3.2,4.6v-4.6h-1.1V164.6z
		 M38.7,164.6h1.1v-5.3h2v-1h-5.2v1h2V164.6z M43,164.6h4.8v-1h-3.7v-1.7h3.2v-1h-3.2v-1.6h3.6v-1H43V164.6z M49.1,164.6h1.1v-2h1.2
		c1.4,0,2.6-0.8,2.6-2.2c0-1.3-0.9-2.2-2.4-2.2h-2.5V164.6z M50.3,161.6v-2.3h1.3c0.8,0,1.4,0.4,1.4,1.1c0,0.7-0.5,1.2-1.4,1.2H50.3
		z M55.2,164.6h1l3.2-4.6v4.6h1.1v-6.4h-1l-3.2,4.6v-4.6h-1.1V164.6z M62.2,164.6h1.1v-2.7h3v2.7h1.1v-6.4h-1.1v2.7h-3v-2.7h-1.1
		V164.6z M69.1,164.6h1.1v-5.4h3.1v-1h-4.3V164.6z M77.6,164.7c2,0,3.3-1.5,3.3-3.3c0-1.8-1.4-3.3-3.3-3.3c-2,0-3.3,1.5-3.3,3.3
		C74.3,163.2,75.6,164.7,77.6,164.7L77.6,164.7z M77.6,163.7c-1.3,0-2.2-1-2.2-2.3c0-1.2,0.9-2.2,2.2-2.2c1.3,0,2.2,1,2.2,2.2
		C79.7,162.7,78.8,163.7,77.6,163.7L77.6,163.7z M82.2,164.6h2.9c1.4,0,2.4-0.6,2.4-1.8c0-0.9-0.5-1.3-1.2-1.6
		c0.5-0.3,0.9-0.7,0.9-1.4c0-0.5-0.1-0.8-0.4-1.1c-0.4-0.4-0.9-0.6-1.7-0.6h-2.9V164.6z M83.4,160.9v-1.7H85c0.7,0,1.1,0.3,1.1,0.8
		c0,0.6-0.5,0.9-1.2,0.9H83.4z M83.4,163.6v-1.8h1.8c0.9,0,1.3,0.3,1.3,0.9c0,0.6-0.5,0.9-1.2,0.9H83.4z M88.3,164.6h1.1l0.7-1.6h3
		l0.7,1.6h1.2l-2.8-6.4h-1L88.3,164.6z M90.5,162.1l1.1-2.6l1.1,2.6H90.5z M95.5,164.6h1.3l1.6-2.2h1.4v2.2h1.1v-6.4h-2.8
		c-1.5,0-2.4,0.8-2.4,2c0,1,0.6,1.7,1.5,1.9L95.5,164.6z M98.2,161.5c-0.8,0-1.3-0.4-1.3-1.1s0.5-1.1,1.4-1.1h1.6v2.2H98.2z
		 M105.3,164.6h1.1v-1.8l1-1l2.2,2.9h1.4l-2.8-3.6l2.7-2.7h-1.4l-3,3.2v-3.2h-1.1V164.6z M114.9,164.7c1.9,0,3.3-1.5,3.3-3.3
		c0-1.8-1.4-3.3-3.3-3.3s-3.3,1.5-3.3,3.3C111.6,163.2,113,164.7,114.9,164.7L114.9,164.7z M114.9,163.7c-1.2,0-2.2-1-2.2-2.3
		c0-1.2,0.9-2.2,2.2-2.2c1.2,0,2.2,1,2.2,2.2C117.1,162.7,116.2,163.7,114.9,163.7L114.9,163.7z M119.6,164.6h1.1v-4.6l2,3h0l2-3
		v4.6h1.1v-6.4h-1.2l-2,3l-1.9-3h-1.2V164.6z M127.5,164.6h1.1v-5.4h2.9v5.4h1.1v-6.4h-5.2V164.6z M133.8,164.6h1.1l0.7-1.6h3
		l0.6,1.6h1.2l-2.8-6.4h-1L133.8,164.6z M136,162.1l1.1-2.6l1.1,2.6H136z M141.5,164.6h1.1v-2.7h3v2.7h1.1v-6.4h-1.1v2.7h-3v-2.7
		h-1.1V164.6z M148.4,164.6h1l3.2-4.6v4.6h1.1v-6.4h-1l-3.2,4.6v-4.6h-1.1V164.6z M154.9,164.6h1.3l1.6-2.2h1.4v2.2h1.1v-6.4h-2.8
		c-1.5,0-2.4,0.8-2.4,2c0,1,0.6,1.7,1.5,1.9L154.9,164.6z M157.6,161.5c-0.8,0-1.3-0.4-1.3-1.1s0.5-1.1,1.4-1.1h1.6v2.2H157.6z"/>
	
		<line fill="none" stroke="#F2E1C3" stroke-width="1.0205" stroke-linecap="round" stroke-linejoin="round" stroke-miterlimit="10" x1="12.3" y1="120.5" x2="166.3" y2="120.5"/>
	
		<line fill="none" stroke="#F2E1C3" stroke-width="1.0205" stroke-linecap="round" stroke-linejoin="round" stroke-miterlimit="10" x1="12.3" y1="176.5" x2="166.3" y2="176.5"/>
</g>
</svg>
