<?xml version="1.0" encoding="utf-8"?>
<!-- Generator: Adobe Illustrator 22.1.0, SVG Export Plug-In . SVG Version: 6.00 Build 0)  -->
<svg version="1.1" id="Layer_1" xmlns="http://www.w3.org/2000/svg" xmlns:xlink="http://www.w3.org/1999/xlink" x="0px" y="0px"
	 width="180px" height="98px" viewBox="0 0 180 98" enable-background="new 0 0 180 98" xml:space="preserve">
<g>
	<path fill-rule="evenodd" clip-rule="evenodd" fill="#FE5720" d="M0,0h180v85.8c0,6.7-5.6,12.2-12.3,12.2H12.3
		C5.6,98,0,92.5,0,85.8V0z"/>
	<path fill="#FFFFFF" d="M16.9,48.4H20l1.2-3.1H27l1.2,3.1h3.2l-5.9-13.8h-2.8L16.9,48.4z M22.3,42.7l1.8-4.5l1.8,4.5H22.3z
		 M33.5,48.4h3V44h2.3l3,4.4h3.5l-3.3-4.9c1.7-0.7,2.9-2,2.9-4.3c0-1.3-0.4-2.4-1.2-3.2c-0.9-0.9-2.3-1.4-4-1.4h-6.3V48.4z
		 M36.6,41.4v-3.9h3c1.5,0,2.4,0.7,2.4,2c0,1.2-0.8,2-2.3,2H36.6z M54.1,48.6c2.7,0,4.2-0.8,5.6-2.3l-1.9-2c-1.1,1-2,1.6-3.6,1.6
		c-2.4,0-4-2-4-4.3c0-2.4,1.7-4.3,4-4.3c1.6,0,2.5,0.6,3.5,1.5l1.8-2.1c-1.3-1.3-2.7-2.2-5.3-2.2c-4.2,0-7.1,3.2-7.1,7.1
		C47.1,45.5,50.1,48.6,54.1,48.6L54.1,48.6z M68.5,48.6c4.3,0,7.3-3.2,7.3-7.1c0-3.9-3-7.1-7.3-7.1c-4.3,0-7.3,3.2-7.3,7.1
		C61.2,45.5,64.2,48.6,68.5,48.6L68.5,48.6z M68.5,45.9c-2.4,0-4.2-2-4.2-4.3c0-2.4,1.7-4.3,4.1-4.3s4.2,2,4.2,4.3
		C72.6,43.9,70.9,45.9,68.5,45.9L68.5,45.9z M78.5,48.4H85c3.1,0,5.1-1.2,5.1-3.8c0-1.9-1-2.8-2.6-3.4c1-0.5,1.8-1.4,1.8-2.9
		c0-1-0.3-1.8-0.9-2.4c-0.8-0.8-2-1.2-3.6-1.2h-6.4V48.4z M81.4,40.3v-2.9h3c1.3,0,2,0.5,2,1.4c0,1.1-0.9,1.5-2.2,1.5H81.4z
		 M81.4,45.8v-3h3.5c1.5,0,2.2,0.6,2.2,1.5c0,1-0.8,1.5-2.2,1.5H81.4z M91.4,48.4h3.1l1.3-3.1h5.8l1.2,3.1h3.2l-5.9-13.8h-2.8
		L91.4,48.4z M96.9,42.7l1.8-4.5l1.8,4.5H96.9z M108.1,48.4h9.9v-2.7h-6.8v-11h-3V48.4z M120.2,48.4h10.4v-2.7h-7.5v-2.9h6.5v-2.7
		h-6.5v-2.8h7.4v-2.7h-10.3V48.4z M133.4,48.4h3v-8.7l6.6,8.7h2.6V34.7h-3v8.4l-6.4-8.4h-2.8V48.4z M155.5,48.6
		c4.3,0,7.3-3.2,7.3-7.1c0-3.9-3-7.1-7.3-7.1c-4.3,0-7.3,3.2-7.3,7.1C148.3,45.5,151.3,48.6,155.5,48.6L155.5,48.6z M155.6,45.9
		c-2.4,0-4.2-2-4.2-4.3c0-2.4,1.7-4.3,4.1-4.3c2.4,0,4.2,2,4.2,4.3C159.7,43.9,158,45.9,155.6,45.9L155.6,45.9z"/>
	<path d="M18.1,65.3h1.1v-1.8l1-1l2.2,2.9h1.3l-2.7-3.6l2.6-2.7h-1.4l-3,3.2V59h-1.1V65.3z M24.6,65.3h4.8v-1h-3.7v-1.7h3.2v-1h-3.2
		V60h3.6v-1h-4.7V65.3z M33.4,58.5c0.8,0,1.3-0.5,1.4-1.3l-0.7-0.1c-0.1,0.4-0.3,0.6-0.7,0.6c-0.4,0-0.7-0.3-0.8-0.6L32,57.2
		C32.1,58,32.7,58.5,33.4,58.5L33.4,58.5z M30.7,65.3h1l3.2-4.6v4.6h1.1V59h-1l-3.2,4.6V59h-1.1V65.3z M39.3,65.3h1.1V60h2v-1h-5.2
		v1h2V65.3z M43.6,65.3h4.8v-1h-3.7v-1.7h3.2v-1h-3.2V60h3.6v-1h-4.7V65.3z M49.7,65.3h1.1v-2h1.3c1.4,0,2.5-0.7,2.5-2.2
		c0-1.3-0.9-2.2-2.4-2.2h-2.5V65.3z M50.8,62.3V60h1.3c0.8,0,1.4,0.4,1.4,1.1c0,0.7-0.5,1.2-1.4,1.2H50.8z M55.8,65.3h1l3.2-4.6v4.6
		h1.1V59h-1l-3.2,4.6V59h-1.1V65.3z M62.8,65.3h1.1v-2.7h3v2.7h1.1V59H67v2.6h-3V59h-1.1V65.3z M69.7,65.3h1.1V60H74v-1h-4.3V65.3z
		 M78.1,65.4c2,0,3.3-1.5,3.3-3.3c0-1.8-1.4-3.3-3.3-3.3c-2,0-3.3,1.5-3.3,3.3C74.8,64,76.2,65.4,78.1,65.4L78.1,65.4z M78.2,64.4
		c-1.3,0-2.2-1-2.2-2.3c0-1.2,0.9-2.3,2.1-2.3c1.3,0,2.2,1,2.2,2.3C80.3,63.4,79.4,64.4,78.2,64.4L78.2,64.4z M82.8,65.3h2.9
		c1.4,0,2.4-0.6,2.4-1.7c0-0.9-0.5-1.3-1.3-1.6c0.5-0.3,0.9-0.7,0.9-1.4c0-0.5-0.1-0.8-0.4-1.1C87,59.2,86.4,59,85.7,59h-2.8V65.3z
		 M83.9,61.7V60h1.6c0.7,0,1.1,0.3,1.1,0.8c0,0.6-0.5,0.9-1.2,0.9H83.9z M83.9,64.3v-1.7h1.8c0.9,0,1.3,0.3,1.3,0.9
		c0,0.6-0.5,0.9-1.2,0.9H83.9z M88.8,65.3H90l0.7-1.5h3l0.6,1.5h1.2l-2.8-6.4h-1L88.8,65.3z M91,62.8l1.1-2.6l1.1,2.6H91z
		 M96.1,65.3h1.3l1.6-2.2h1.4v2.2h1.1V59h-2.8c-1.5,0-2.4,0.8-2.4,2c0,1.1,0.6,1.7,1.5,2L96.1,65.3z M98.7,62.2
		c-0.8,0-1.3-0.5-1.3-1.1c0-0.7,0.5-1.1,1.3-1.1h1.6v2.2H98.7z M105.8,65.3h1.1v-1.8l1-1l2.2,2.9h1.4l-2.7-3.6l2.6-2.7H110l-3,3.2
		V59h-1.1V65.3z M115.5,65.4c2,0,3.3-1.5,3.3-3.3c0-1.8-1.4-3.3-3.3-3.3c-2,0-3.3,1.5-3.3,3.3C112.2,64,113.5,65.4,115.5,65.4
		L115.5,65.4z M115.5,64.4c-1.3,0-2.2-1-2.2-2.3c0-1.2,0.9-2.3,2.2-2.3c1.2,0,2.2,1,2.2,2.3C117.6,63.4,116.8,64.4,115.5,64.4
		L115.5,64.4z M120.2,65.3h1.1v-4.5l2,3h0.1l2-3v4.6h1.1V59h-1.2l-1.9,3l-2-3h-1.2V65.3z M128.1,65.3h1.1V60h2.9v5.3h1.1V59h-5.2
		V65.3z M134.3,65.3h1.2l0.7-1.5h3l0.7,1.5h1.2l-2.8-6.4h-1L134.3,65.3z M136.5,62.8l1.1-2.6l1.1,2.6H136.5z M142.1,65.3h1.1v-2.7h3
		v2.7h1.1V59h-1.1v2.6h-3V59h-1.1V65.3z M149,65.3h1.1l3.2-4.6v4.6h1.1V59h-1l-3.2,4.6V59H149V65.3z M155.5,65.3h1.3l1.6-2.2h1.4
		v2.2h1.1V59h-2.8c-1.5,0-2.4,0.8-2.4,2c0,1.1,0.6,1.7,1.5,2L155.5,65.3z M158.1,62.2c-0.8,0-1.3-0.5-1.3-1.1c0-0.7,0.5-1.1,1.3-1.1
		h1.6v2.2H158.1z"/>
	
		<line fill="none" stroke="#F2E1C3" stroke-width="0.9921" stroke-linecap="round" stroke-linejoin="round" stroke-miterlimit="10" x1="12.8" y1="21.5" x2="166.9" y2="21.5"/>
	
		<line fill="none" stroke="#F2E1C3" stroke-width="0.9921" stroke-linecap="round" stroke-linejoin="round" stroke-miterlimit="10" x1="12.8" y1="77.5" x2="166.9" y2="77.5"/>
</g>
</svg>
