<?xml version="1.0" encoding="utf-8"?>
<!-- Generator: Adobe Illustrator 22.1.0, SVG Export Plug-In . SVG Version: 6.00 Build 0)  -->
<svg version="1.1" id="Layer_1" xmlns="http://www.w3.org/2000/svg" xmlns:xlink="http://www.w3.org/1999/xlink" x="0px" y="0px"
	 width="180px" height="98px" viewBox="0 0 180 98" enable-background="new 0 0 180 98" xml:space="preserve">
<g>
	<path fill-rule="evenodd" clip-rule="evenodd" fill="#218D21" d="M0,0h180v85.8c0,6.7-5.6,12.2-12.3,12.2H12.3
		C5.6,98,0,92.5,0,85.8V0z"/>
	<path fill="#FFFFFF" d="M17.4,48.4h3.1l1.2-3.1h5.8l1.2,3.1h3.1l-5.9-13.8h-2.8L17.4,48.4z M22.8,42.7l1.8-4.5l1.8,4.5H22.8z
		 M34.1,48.4h3V44h2.4l3,4.4h3.5l-3.3-4.9c1.8-0.7,2.9-2,2.9-4.3c0-1.3-0.4-2.4-1.2-3.2c-0.9-0.9-2.2-1.4-4-1.4h-6.3V48.4z
		 M37.1,41.4v-3.9h3c1.5,0,2.4,0.7,2.4,2c0,1.2-0.9,2-2.3,2H37.1z M54.7,48.6c2.6,0,4.2-0.8,5.6-2.3l-1.9-2c-1.1,1-2,1.6-3.6,1.6
		c-2.4,0-4-2-4-4.3c0-2.4,1.7-4.3,4-4.3c1.6,0,2.5,0.6,3.5,1.5l1.8-2.1c-1.3-1.3-2.7-2.2-5.3-2.2c-4.2,0-7.2,3.2-7.2,7.1
		C47.6,45.5,50.6,48.6,54.7,48.6L54.7,48.6z M69,48.6c4.3,0,7.3-3.2,7.3-7.1c0-3.9-3-7.1-7.3-7.1c-4.3,0-7.3,3.2-7.3,7.1
		C61.7,45.5,64.7,48.6,69,48.6L69,48.6z M69,45.9c-2.4,0-4.2-2-4.2-4.3c0-2.4,1.7-4.3,4.1-4.3c2.4,0,4.2,2,4.2,4.3
		C73.1,43.9,71.5,45.9,69,45.9L69,45.9z M79,48.4h6.5c3.1,0,5.2-1.2,5.2-3.8c0-1.9-1-2.8-2.6-3.4c1-0.5,1.8-1.4,1.8-2.9
		c0-1-0.3-1.8-1-2.4c-0.8-0.8-2-1.2-3.6-1.2H79V48.4z M81.9,40.3v-2.9h3c1.3,0,2,0.5,2,1.4c0,1.1-0.9,1.5-2.2,1.5H81.9z M81.9,45.8
		v-3h3.5c1.6,0,2.2,0.6,2.2,1.5c0,1-0.8,1.5-2.2,1.5H81.9z M92,48.4H95l1.2-3.1h5.8l1.2,3.1h3.1l-5.9-13.8h-2.8L92,48.4z M97.4,42.7
		l1.8-4.5l1.8,4.5H97.4z M108.6,48.4h9.9v-2.7h-6.9v-11h-3V48.4z M120.8,48.4h10.5v-2.7h-7.5v-2.9h6.5v-2.7h-6.5v-2.8h7.3v-2.7
		h-10.3V48.4z M133.9,48.4h3v-8.7l6.7,8.7h2.6V34.7h-3v8.4l-6.4-8.4h-2.8V48.4z M156,48.6c4.2,0,7.3-3.2,7.3-7.1
		c0-3.9-3.1-7.1-7.3-7.1s-7.3,3.2-7.3,7.1C148.8,45.5,151.8,48.6,156,48.6L156,48.6z M156.1,45.9c-2.4,0-4.2-2-4.2-4.3
		c0-2.4,1.7-4.3,4.1-4.3c2.4,0,4.1,2,4.1,4.3C160.2,43.9,158.5,45.9,156.1,45.9L156.1,45.9z"/>
	<path d="M18.6,65.3h1.1v-1.8l1-1l2.2,2.9h1.4l-2.8-3.6l2.6-2.7h-1.4l-3,3.2V59h-1.1V65.3z M25.1,65.3h4.8v-1h-3.6v-1.7h3.2v-1h-3.2
		V60h3.6v-1h-4.7V65.3z M34,58.5c0.8,0,1.3-0.5,1.4-1.3l-0.7-0.1c-0.1,0.4-0.4,0.6-0.8,0.6s-0.7-0.3-0.8-0.6l-0.7,0.1
		C32.7,58,33.2,58.5,34,58.5L34,58.5z M31.2,65.3h1l3.2-4.6v4.6h1.1V59h-1l-3.2,4.6V59h-1.1V65.3z M39.8,65.3h1.1V60h2v-1h-5.2v1h2
		V65.3z M44.1,65.3h4.8v-1h-3.6v-1.7h3.2v-1h-3.2V60h3.6v-1h-4.7V65.3z M50.2,65.3h1.1v-2h1.3c1.4,0,2.6-0.7,2.6-2.2
		c0-1.3-0.9-2.2-2.4-2.2h-2.5V65.3z M51.3,62.3V60h1.3c0.9,0,1.4,0.4,1.4,1.1c0,0.7-0.5,1.2-1.4,1.2H51.3z M56.3,65.3h1l3.2-4.6v4.6
		h1.1V59h-1l-3.2,4.6V59h-1.1V65.3z M63.3,65.3h1.1v-2.7h3v2.7h1.1V59h-1.1v2.6h-3V59h-1.1V65.3z M70.2,65.3h1.1V60h3.2v-1h-4.3
		V65.3z M78.7,65.4c2,0,3.3-1.5,3.3-3.3c0-1.8-1.4-3.3-3.3-3.3c-2,0-3.3,1.5-3.3,3.3C75.3,64,76.7,65.4,78.7,65.4L78.7,65.4z
		 M78.7,64.4c-1.2,0-2.2-1-2.2-2.3c0-1.2,0.9-2.3,2.2-2.3c1.2,0,2.2,1,2.2,2.3C80.8,63.4,79.9,64.4,78.7,64.4L78.7,64.4z M83.3,65.3
		h2.9c1.4,0,2.4-0.6,2.4-1.7c0-0.9-0.5-1.3-1.2-1.6c0.5-0.3,0.9-0.7,0.9-1.4c0-0.5-0.2-0.8-0.5-1.1c-0.3-0.4-0.9-0.6-1.6-0.6h-2.9
		V65.3z M84.4,61.7V60h1.6c0.7,0,1.1,0.3,1.1,0.8c0,0.6-0.5,0.9-1.2,0.9H84.4z M84.4,64.3v-1.7h1.8c0.9,0,1.3,0.3,1.3,0.9
		c0,0.6-0.5,0.9-1.2,0.9H84.4z M89.3,65.3h1.2l0.7-1.5h3l0.7,1.5H96l-2.8-6.4h-1L89.3,65.3z M91.6,62.8l1.1-2.6l1.1,2.6H91.6z
		 M96.6,65.3h1.3l1.6-2.2h1.4v2.2h1.1V59h-2.8c-1.5,0-2.4,0.8-2.4,2c0,1.1,0.6,1.7,1.5,2L96.6,65.3z M99.3,62.2
		c-0.8,0-1.3-0.5-1.3-1.1c0-0.7,0.5-1.1,1.3-1.1h1.6v2.2H99.3z M106.4,65.3h1.1v-1.8l1-1l2.2,2.9h1.3l-2.7-3.6l2.6-2.7h-1.4l-3,3.2
		V59h-1.1V65.3z M116,65.4c2,0,3.3-1.5,3.3-3.3c0-1.8-1.4-3.3-3.3-3.3c-2,0-3.3,1.5-3.3,3.3C112.7,64,114,65.4,116,65.4L116,65.4z
		 M116,64.4c-1.3,0-2.2-1-2.2-2.3c0-1.2,0.9-2.3,2.1-2.3c1.3,0,2.2,1,2.2,2.3C118.2,63.4,117.3,64.4,116,64.4L116,64.4z M120.7,65.3
		h1.1v-4.5l2,3h0l2-3v4.6h1.1V59h-1.2l-1.9,3l-1.9-3h-1.2V65.3z M128.6,65.3h1.1V60h3v5.3h1.1V59h-5.2V65.3z M134.9,65.3h1.1
		l0.7-1.5h3l0.7,1.5h1.2l-2.8-6.4h-1L134.9,65.3z M137.1,62.8l1.1-2.6l1.1,2.6H137.1z M142.6,65.3h1.1v-2.7h3v2.7h1.1V59h-1.1v2.6
		h-3V59h-1.1V65.3z M149.5,65.3h1l3.2-4.6v4.6h1.1V59h-1l-3.2,4.6V59h-1.1V65.3z M156,65.3h1.3l1.6-2.2h1.4v2.2h1.1V59h-2.8
		c-1.5,0-2.4,0.8-2.4,2c0,1.1,0.7,1.7,1.5,2L156,65.3z M158.7,62.2c-0.8,0-1.3-0.5-1.3-1.1c0-0.7,0.5-1.1,1.3-1.1h1.6v2.2H158.7z"/>
	
		<line fill="none" stroke="#F2E1C3" stroke-width="1.0205" stroke-linecap="round" stroke-linejoin="round" stroke-miterlimit="10" x1="13.4" y1="21.5" x2="167.4" y2="21.5"/>
	
		<line fill="none" stroke="#F2E1C3" stroke-width="1.0205" stroke-linecap="round" stroke-linejoin="round" stroke-miterlimit="10" x1="13.4" y1="77.5" x2="167.4" y2="77.5"/>
</g>
</svg>
