<?xml version="1.0" encoding="UTF-8" standalone="no"?>
<svg width="840px" height="600px" viewBox="0 0 840 600" version="1.1" xmlns="http://www.w3.org/2000/svg" xmlns:xlink="http://www.w3.org/1999/xlink">
    <!-- Generator: Sketch 39.1 (31720) - http://www.bohemiancoding.com/sketch -->
    <title>Visa-Debit-Alt</title>
    <desc>Created with Sketch.</desc>
    <defs></defs>
    <g id="Page-1" stroke="none" stroke-width="1" fill="none" fill-rule="evenodd">
        <g id="GoPro-Credit_Card-Logos" transform="translate(-2180.000000, -900.000000)">
            <g id="Visa-Debit-Alt" transform="translate(2180.000000, 900.000000)">
                <rect id="CC-BG" fill="#0066B2" x="0" y="0" width="840" height="600" rx="60"></rect>
                <g id="Visa-Debit-Logo" transform="translate(122.000000, 149.000000)">
                    <text id="DEBIT" font-family="MyriadPro-SemiCnIt, Myriad Pro" font-size="115" font-style="italic" font-weight="500" letter-spacing="6" fill="#FFFFFF">
                        <tspan x="319.415" y="297">DEBI</tspan>
                        <tspan x="541.675" y="297">T</tspan>
                    </text>
                    <g id="Visa">
                        <path d="M211,181 L241,3 L288,3 L258,181 L211,181 Z M431,7 C421.57715,3.90391576 406.757353,0 388,0 C341.179002,0 308.012313,24.1921685 308,59 C307.437184,84.4488319 331.404533,98.7403751 349,107 C368.043802,115.985522 374.282999,121.57157 374,129 C374.081295,141.314906 359.386882,146.785127 346,147 C326.604521,146.785127 316.467529,144.092136 301,137 L295,135 L288,174 C299.112803,179.464297 319.713875,183.77361 341,184 C391.1689,184 423.705945,160.102665 424,123 C424.259268,102.796973 411.56009,87.3945377 384,75 C367.403256,66.4165844 357.181766,60.941099 357,53 C357.309876,45.1648569 365.934087,37.2359329 385,37 C400.188342,36.9937479 411.472867,40.4606779 420,44 L425,46 L431,7 Z M553,3 L517,3 C505.254081,3 496.711025,6.15132707 492,18 L421,181 L471,181 C471.011053,181 479.17012,159.040669 481,154 C486.476788,154.221611 535.071714,154.313679 542,154 C543.43503,160.529527 547.805959,181 548,181 L592,181 L553,3 Z M495,118 C498.993111,107.728444 514.193937,68.0515224 514,68 C513.912849,68.5212904 518.165002,57.6981526 521,51 L524,66 C523.850155,66.4126128 533.095763,109.066491 535,118 L495,118 Z M171,3 L124,125 L119,100 C110.26988,71.3803127 83.2374947,40.5212214 53,25 L96,181 L146,181 L221,3 L171,3 Z" id="Combined-Shape" fill="#FFFFFF"></path>
                        <path d="M80,101 L1,101 L0,97 C61.459476,81.768696 102.122455,44.6362624 119,0 L102,85 C98.8758033,97.0999837 90.2703562,100.588606 80,101" id="path30" fill="#F79510" transform="translate(59.500000, 50.500000) scale(1, -1) translate(-59.500000, -50.500000) "></path>
                    </g>
                </g>
            </g>
        </g>
    </g>
</svg>