<?xml version="1.0" encoding="UTF-8" standalone="no"?>
<svg
   xmlns:dc="http://purl.org/dc/elements/1.1/"
   xmlns:cc="http://creativecommons.org/ns#"
   xmlns:rdf="http://www.w3.org/1999/02/22-rdf-syntax-ns#"
   xmlns:svg="http://www.w3.org/2000/svg"
   xmlns="http://www.w3.org/2000/svg"
   viewBox="0 0 757.29333 757.29333"
   height="757.29333"
   width="757.29333"
   xml:space="preserve"
   id="svg2"
   version="1.1"><metadata
     id="metadata8"><rdf:RDF><cc:Work
         rdf:about=""><dc:format>image/svg+xml</dc:format><dc:type
           rdf:resource="http://purl.org/dc/dcmitype/StillImage" /></cc:Work></rdf:RDF></metadata><defs
     id="defs6" /><g
     transform="matrix(1.3333333,0,0,-1.3333333,0,757.29333)"
     id="g10"><g
       transform="scale(0.1)"
       id="g12"><path
         id="path14"
         style="fill:none;stroke:#ed1c24;stroke-width:10.41749954;stroke-linecap:butt;stroke-linejoin:miter;stroke-miterlimit:4;stroke-dasharray:none;stroke-opacity:1"
         d="M 5674.51,5.19922 H 5.21094 V 5674.5 H 5674.51 Z" /><path
         id="path16"
         style="fill:#231f20;fill-opacity:1;fill-rule:nonzero;stroke:none"
         d="M 2616.83,1219.26 H 558.008 V 2742.14 H 2616.83 V 1219.26" /><path
         id="path18"
         style="fill:#ffffff;fill-opacity:1;fill-rule:nonzero;stroke:none"
         d="m 2501.68,4990.46 c 75.01,-280.19 -269.41,-615.76 -769.32,-749.63 -499.93,-133.86 -965.977,-15.34 -1040.989,264.79 -75,280.18 269.406,615.79 769.309,749.65 499.93,133.88 965.97,15.3 1041,-264.81" /><path
         id="path20"
         style="fill:#ed1c24;fill-opacity:1;fill-rule:nonzero;stroke:none"
         d="m 2496.61,4989.1 c 47.81,-196.86 -98.01,-376.54 -245.06,-492.05 -153.82,-120.1 -335.6,-201.68 -523.81,-251.96 -188.37,-49.46 -386.68,-69.36 -579.77,-40.77 -184.579,27.54 -401.361,112.67 -452.947,309.15 l 16.075,3.92 c -43.532,183.91 95.113,360.27 239.871,475.03 150.671,119.15 329.721,201.64 515.781,253.14 186.22,50.83 382.7,72.49 574.97,46.54 184.03,-25.47 400.18,-105.47 459.96,-301.64 -55.96,197.7 -273.03,283.47 -458.35,312.42 -193.71,29.83 -392.63,11.71 -582.17,-36.25 -189.44,-48.72 -372.9,-128.73 -530.367,-248.47 -78.098,-60.17 -149.871,-131.11 -202.574,-217.04 -52.34,-84.41 -84.563,-190.92 -59.485,-294.05 l 16.075,3.91 c 23.187,-98.34 97.515,-176.26 182.472,-224.97 85.739,-49.61 182.109,-77.23 279.109,-92.09 194.97,-28.84 394.49,-8.75 584.05,41 189.39,50.62 372.32,132.63 527.63,253.87 147.98,116.59 297.76,298.41 248.7,503.03 l -10.16,-2.72" /><path
         id="path22"
         style="fill:#ed1c24;fill-opacity:1;fill-rule:nonzero;stroke:none"
         d="m 1766.46,4953.59 -20.06,73.18 -23.77,-73.18 z m -15.27,90.77 70.15,-257.21 -8.75,-2.33 -39.53,144.59 h -58.26 l -14.94,-46.05 h -9.49 l 51.99,161.43 8.83,-0.43" /><path
         id="path24"
         style="fill:#4f4c4c;fill-opacity:1;fill-rule:nonzero;stroke:none"
         d="m 1804.17,4961.84 h 67.25 v -20.48 h -30.04 v -58.41 h -7.17 v 58.41 h -30.04 v 20.48" /><path
         id="path26"
         style="fill:#4f4c4c;fill-opacity:1;fill-rule:nonzero;stroke:none"
         d="m 1941.15,4933.28 c -1.49,5.84 -4.61,10.9 -9.36,15.2 -4.76,4.29 -10.25,6.42 -16.46,6.42 -6.21,0 -11.72,-2.13 -16.51,-6.42 -4.78,-4.3 -7.89,-9.36 -9.31,-15.2 z m -26.31,29.55 c 9.24,0 17.23,-3.56 23.96,-10.64 6.74,-7.09 10.45,-15.75 11.1,-25.92 h -3.79 v -0.16 h -57.44 c 0.17,-6.99 2.85,-12.59 8.04,-16.8 5.2,-4.2 11.41,-6.3 18.62,-6.3 6.05,0 11.42,1.5 16.13,4.53 4.71,3.02 7.87,7.13 9.53,12.3 h 8.83 c -0.61,-10.07 -3.83,-18.59 -9.65,-25.54 -5.84,-6.96 -14.28,-10.44 -25.33,-10.44 -11.72,0 -20.51,3.85 -26.37,11.59 -5.86,7.73 -8.79,17.05 -8.79,27.93 0,10.89 3.44,20.19 10.32,27.89 6.87,7.71 15.15,11.56 24.84,11.56" /><path
         id="path28"
         style="fill:#4f4c4c;fill-opacity:1;fill-rule:nonzero;stroke:none"
         d="m 1981.83,4961.84 h 42.5 v -78.89 h -7.58 v 58.41 h -28.14 c 0,-9.06 -0.51,-18.59 -1.49,-28.59 -0.99,-9.98 -3.47,-19.43 -7.42,-28.34 -0.45,-0.88 -1.99,-1.45 -4.63,-1.74 l -16.5,-0.23 v 20.37 h 14.69 c 0.27,-0.06 0.54,-0.08 0.82,-0.08 1.27,0 2.28,0.75 3.06,2.23 0.92,1.82 1.53,3.36 1.8,4.63 1.93,10.27 2.89,21.64 2.89,34.08 v 18.15" /><path
         id="path30"
         style="fill:#4f4c4c;fill-opacity:1;fill-rule:nonzero;stroke:none"
         d="m 2041.75,4954.34 v -50.92 h 33.83 c 7.27,0 11.33,2.42 12.23,7.26 0.37,2.19 0.56,4.14 0.56,5.86 0,2.09 -0.27,3.81 -0.82,5.19 -2.2,5.52 -5.25,10.2 -9.16,14.11 -4.02,3.91 -9.04,7.48 -15.06,10.7 -6.03,3.21 -13.22,5.8 -21.58,7.8 z m -7.18,86.97 h 7.18 v -79.63 c 15.69,-3.48 27.85,-8.91 36.53,-16.35 8.65,-7.42 14.53,-15.1 17.61,-23.03 1.82,-5 2.72,-9.84 2.72,-14.51 0,-0.5 0,-0.99 0,-1.48 -0.28,-5.29 -1.56,-9.83 -3.89,-13.62 -4,-6.6 -9.67,-9.9 -16.99,-9.9 -1.04,0 -2.11,0.04 -3.22,0.16 h -39.94 v 158.36" /><path
         id="path32"
         style="fill:#4f4c4c;fill-opacity:1;fill-rule:nonzero;stroke:none"
         d="m 2168.59,4933.28 c -1.49,5.84 -4.61,10.9 -9.38,15.2 -4.74,4.29 -10.23,6.42 -16.46,6.42 -6.21,0 -11.7,-2.13 -16.5,-6.42 -4.79,-4.3 -7.9,-9.36 -9.32,-15.2 z m -26.33,29.55 c 9.24,0 17.23,-3.56 23.99,-10.64 6.73,-7.09 10.42,-15.75 11.09,-25.92 h -3.81 v -0.16 h -57.42 c 0.15,-6.99 2.85,-12.59 8.05,-16.8 5.19,-4.2 11.38,-6.3 18.59,-6.3 6.05,0 11.44,1.5 16.13,4.53 4.71,3.02 7.89,7.13 9.53,12.3 h 8.85 c -0.6,-10.07 -3.83,-18.59 -9.67,-25.54 -5.82,-6.96 -14.27,-10.44 -25.33,-10.44 -11.72,0 -20.51,3.85 -26.37,11.59 -5.86,7.73 -8.79,17.05 -8.79,27.93 0,10.89 3.44,20.19 10.32,27.89 6.87,7.71 15.15,11.56 24.84,11.56" /><path
         id="path34"
         style="fill:#4f4c4c;fill-opacity:1;fill-rule:nonzero;stroke:none"
         d="M 867.008,4797.32 H 1046.26 V 4548.1 h -47.944 v 204.85 H 915.113 V 4548.1 h -48.105 v 249.22" /><path
         id="path36"
         style="fill:#4f4c4c;fill-opacity:1;fill-rule:nonzero;stroke:none"
         d="m 1150.46,4699.9 h 15.08 c 11.86,0 20.1,0.86 24.73,2.56 4.63,1.7 8.28,4.49 10.94,8.42 2.63,3.91 3.96,8.63 3.96,14.18 0,9.65 -3.71,16.66 -11.17,21.09 -5.43,3.28 -15.47,4.92 -30.16,4.92 h -13.38 z m -47.44,97.42 h 50.31 c 27.23,0 46.86,-2.5 58.87,-7.53 12.03,-5.02 21.53,-13.15 28.48,-24.4 6.95,-11.23 10.41,-24.71 10.41,-40.41 0,-17.38 -4.55,-31.85 -13.63,-43.36 -9.11,-11.52 -21.43,-19.55 -37.02,-24.06 -9.16,-2.6 -25.82,-3.91 -49.98,-3.91 V 4548.1 h -47.44 v 249.22" /><path
         id="path38"
         style="fill:#ed1c24;fill-opacity:1;fill-rule:nonzero;stroke:none"
         d="m 1414.68,4757.17 c -23.06,0 -42.46,-8.01 -58.18,-24.04 -15.7,-16.06 -23.58,-36.43 -23.58,-61.18 0,-27.56 9.91,-49.35 29.69,-65.39 15.37,-12.54 33.01,-18.81 52.91,-18.81 22.5,0 41.66,8.13 57.5,24.4 15.84,16.27 23.75,36.31 23.75,60.13 0,23.74 -7.97,43.81 -23.92,60.24 -15.94,16.44 -35.34,24.65 -58.17,24.65 z m 0.51,46.42 c 35.25,0 65.59,-12.75 90.96,-38.28 25.37,-25.52 38.06,-56.66 38.06,-93.36 0,-36.37 -12.52,-67.15 -37.55,-92.34 -25.04,-25.18 -55.41,-37.78 -91.14,-37.78 -37.4,0 -68.49,12.93 -93.24,38.79 -24.75,25.88 -37.13,56.6 -37.13,92.17 0,23.85 5.76,45.76 17.29,65.75 11.54,20 27.38,35.84 47.56,47.53 20.17,11.68 41.91,17.52 65.19,17.52" /><path
         id="path40"
         style="fill:#4f4c4c;fill-opacity:1;fill-rule:nonzero;stroke:none"
         d="m 1713.65,4721.43 v -63.54 h 15.58 c 16.04,0 26.66,2.99 31.86,8.98 5.19,5.98 7.79,13.77 7.79,23.38 0,9.83 -2.75,17.48 -8.22,22.95 -5.49,5.49 -16.52,8.23 -33.13,8.23 z m -47.8,0 h -11.01 c -16.6,0 -27.66,-2.68 -33.2,-8.05 -5.53,-5.37 -8.31,-13.19 -8.31,-23.46 0,-12.09 3.36,-20.45 10.08,-25.08 6.72,-4.65 16.59,-6.95 29.57,-6.95 h 12.87 z m 47.8,75.89 v -32.18 h 10.49 c 59.88,0 89.8,-24.67 89.8,-74.05 0,-14 -2.34,-25.9 -7.03,-35.66 -4.69,-9.77 -11.58,-17.85 -20.66,-24.22 -9.11,-6.39 -18.48,-10.57 -28.13,-12.54 -9.67,-1.97 -24.49,-2.97 -44.47,-2.97 v -67.6 h -47.8 v 67.6 c -20.89,0 -38.02,2.09 -51.4,6.27 -13.4,4.18 -24.38,12.11 -32.97,23.81 -8.57,11.68 -12.87,26.35 -12.87,43.97 0,16.6 3.44,30.6 10.33,42.01 6.89,11.4 16.64,19.82 29.24,25.25 12.58,5.41 31.82,8.13 57.67,8.13 v 32.18 h 47.8" /><path
         id="path42"
         style="fill:#4f4c4c;fill-opacity:1;fill-rule:nonzero;stroke:none"
         d="M 2031.99,4797.32 V 4548.1 h -47.42 v 156.04 l -92.95,-156.04 h -41.25 v 249.22 h 47.44 v -161.11 l 94.2,161.11 h 39.98" /><path
         id="path44"
         style="fill:#4f4c4c;fill-opacity:1;fill-rule:nonzero;stroke:none"
         d="m 2120.98,4592.54 h 3.81 c 5.4,0 8.77,0.2 10.08,0.62 1.31,0.4 2.33,1.13 3.09,2.18 0.76,1.03 1.13,2.22 1.13,3.54 0,1.29 -0.36,2.43 -1.1,3.42 -0.74,1.01 -1.79,1.73 -3.15,2.17 -1.37,0.42 -4.71,0.65 -10.05,0.65 h -3.81 z m -9.34,-26.2 v 46.12 h 9.34 c 8.77,0 13.68,-0.04 14.74,-0.13 3.1,-0.26 5.52,-0.88 7.22,-1.84 1.73,-0.96 3.17,-2.44 4.32,-4.42 1.17,-1.98 1.74,-4.19 1.74,-6.61 0,-3.32 -1.08,-6.16 -3.27,-8.53 -2.17,-2.37 -5.24,-3.82 -9.18,-4.4 1.41,-0.53 2.5,-1.1 3.24,-1.73 0.76,-0.62 1.8,-1.8 3.12,-3.54 0.35,-0.46 1.47,-2.33 3.4,-5.63 l 5.44,-9.29 h -11.57 l -3.85,7.48 c -2.61,5.02 -4.74,8.19 -6.44,9.48 -1.71,1.31 -3.87,1.96 -6.48,1.96 h -2.43 v -18.92 z m 19.65,58.17 c -5.97,0 -11.71,-1.5 -17.18,-4.47 -5.48,-3 -9.81,-7.3 -12.96,-12.86 -3.16,-5.62 -4.74,-11.47 -4.74,-17.58 0,-6.1 1.53,-11.9 4.62,-17.39 3.08,-5.54 7.39,-9.84 12.91,-12.94 5.52,-3.1 11.32,-4.63 17.35,-4.63 6.09,0 11.88,1.53 17.4,4.63 5.49,3.1 9.79,7.4 12.89,12.94 3.09,5.49 4.64,11.29 4.64,17.39 0,6.11 -1.57,11.96 -4.73,17.58 -3.16,5.56 -7.48,9.86 -12.99,12.86 -5.5,2.97 -11.24,4.47 -17.21,4.47 z m -0.06,8.48 c 7.43,0 14.58,-1.86 21.42,-5.58 6.85,-3.73 12.21,-9.05 16.12,-16.01 3.91,-6.93 5.86,-14.21 5.86,-21.8 0,-7.56 -1.9,-14.74 -5.75,-21.6 -3.84,-6.87 -9.18,-12.2 -16.03,-16.04 -6.87,-3.84 -14.08,-5.75 -21.62,-5.75 -7.57,0 -14.78,1.91 -21.64,5.75 -6.86,3.84 -12.2,9.17 -16.03,16.04 -3.84,6.86 -5.76,14.04 -5.76,21.6 0,7.59 1.95,14.87 5.88,21.8 3.9,6.96 9.27,12.28 16.12,16.01 6.83,3.72 13.97,5.58 21.43,5.58" /><path
         id="path46"
         style="fill:#231f20;fill-opacity:1;fill-rule:nonzero;stroke:none"
         d="m 1766.46,3683.46 -20.06,73.19 -23.77,-73.19 z m -15.27,90.77 70.15,-257.21 -8.75,-2.32 -39.53,144.59 h -58.26 l -14.94,-46.06 h -9.49 l 51.99,161.43 8.83,-0.43" /><path
         id="path48"
         style="fill:#231f20;fill-opacity:1;fill-rule:nonzero;stroke:none"
         d="m 1804.17,3691.71 h 67.25 v -20.47 h -30.04 v -58.42 h -7.17 v 58.42 h -30.04 v 20.47" /><path
         id="path50"
         style="fill:#231f20;fill-opacity:1;fill-rule:nonzero;stroke:none"
         d="m 1941.15,3663.15 c -1.49,5.84 -4.61,10.9 -9.36,15.2 -4.76,4.29 -10.25,6.42 -16.46,6.42 -6.21,0 -11.72,-2.13 -16.51,-6.42 -4.78,-4.3 -7.89,-9.36 -9.31,-15.2 z m -26.31,29.55 c 9.24,0 17.23,-3.55 23.96,-10.64 6.74,-7.09 10.45,-15.74 11.1,-25.92 h -3.79 v -0.16 h -57.44 c 0.17,-6.99 2.85,-12.59 8.04,-16.79 5.2,-4.2 11.41,-6.31 18.62,-6.31 6.05,0 11.42,1.5 16.13,4.53 4.71,3.03 7.87,7.13 9.53,12.3 h 8.83 c -0.61,-10.07 -3.83,-18.59 -9.65,-25.54 -5.84,-6.96 -14.28,-10.43 -25.33,-10.43 -11.72,0 -20.51,3.85 -26.37,11.58 -5.86,7.73 -8.79,17.05 -8.79,27.93 0,10.9 3.44,20.2 10.32,27.89 6.87,7.72 15.15,11.56 24.84,11.56" /><path
         id="path52"
         style="fill:#231f20;fill-opacity:1;fill-rule:nonzero;stroke:none"
         d="m 1981.83,3691.71 h 42.5 v -78.89 h -7.58 v 58.42 h -28.14 c 0,-9.06 -0.51,-18.6 -1.49,-28.6 -0.99,-9.98 -3.47,-19.43 -7.42,-28.34 -0.45,-0.87 -1.99,-1.44 -4.63,-1.73 l -16.5,-0.24 v 20.37 h 14.69 c 0.27,-0.06 0.54,-0.07 0.82,-0.07 1.27,0 2.28,0.74 3.06,2.22 0.92,1.82 1.53,3.36 1.8,4.63 1.93,10.27 2.89,21.64 2.89,34.08 v 18.15" /><path
         id="path54"
         style="fill:#231f20;fill-opacity:1;fill-rule:nonzero;stroke:none"
         d="m 2041.75,3684.21 v -50.92 h 33.83 c 7.27,0 11.33,2.42 12.23,7.26 0.37,2.19 0.56,4.15 0.56,5.86 0,2.09 -0.27,3.81 -0.82,5.2 -2.2,5.51 -5.25,10.19 -9.16,14.1 -4.02,3.91 -9.04,7.48 -15.06,10.7 -6.03,3.21 -13.22,5.8 -21.58,7.8 z m -7.18,86.97 h 7.18 v -79.63 c 15.69,-3.48 27.85,-8.91 36.53,-16.35 8.65,-7.42 14.53,-15.09 17.61,-23.02 1.82,-5 2.72,-9.85 2.72,-14.52 0,-0.5 0,-0.99 0,-1.48 -0.28,-5.29 -1.56,-9.82 -3.89,-13.61 -4,-6.61 -9.67,-9.91 -16.99,-9.91 -1.04,0 -2.11,0.04 -3.22,0.16 h -39.94 v 158.36" /><path
         id="path56"
         style="fill:#231f20;fill-opacity:1;fill-rule:nonzero;stroke:none"
         d="m 2168.59,3663.15 c -1.49,5.84 -4.61,10.9 -9.38,15.2 -4.74,4.29 -10.23,6.42 -16.46,6.42 -6.21,0 -11.7,-2.13 -16.5,-6.42 -4.79,-4.3 -7.9,-9.36 -9.32,-15.2 z m -26.33,29.55 c 9.24,0 17.23,-3.55 23.99,-10.64 6.73,-7.09 10.42,-15.74 11.09,-25.92 h -3.81 v -0.16 h -57.42 c 0.15,-6.99 2.85,-12.59 8.05,-16.79 5.19,-4.2 11.38,-6.31 18.59,-6.31 6.05,0 11.44,1.5 16.13,4.53 4.71,3.03 7.89,7.13 9.53,12.3 h 8.85 c -0.6,-10.07 -3.83,-18.59 -9.67,-25.54 -5.82,-6.96 -14.27,-10.43 -25.33,-10.43 -11.72,0 -20.51,3.85 -26.37,11.58 -5.86,7.73 -8.79,17.05 -8.79,27.93 0,10.9 3.44,20.2 10.32,27.89 6.87,7.72 15.15,11.56 24.84,11.56" /><path
         id="path58"
         style="fill:#231f20;fill-opacity:1;fill-rule:nonzero;stroke:none"
         d="m 867.008,3527.2 h 179.252 v -249.22 h -47.944 v 204.84 h -83.203 v -204.84 h -48.105 v 249.22" /><path
         id="path60"
         style="fill:#231f20;fill-opacity:1;fill-rule:nonzero;stroke:none"
         d="m 1150.46,3429.77 h 15.08 c 11.86,0 20.1,0.86 24.73,2.56 4.63,1.7 8.28,4.49 10.94,8.42 2.63,3.91 3.96,8.63 3.96,14.18 0,9.65 -3.71,16.66 -11.17,21.09 -5.43,3.28 -15.47,4.93 -30.16,4.93 h -13.38 z m -47.44,97.43 h 50.31 c 27.23,0 46.86,-2.5 58.87,-7.54 12.03,-5.02 21.53,-13.15 28.48,-24.4 6.95,-11.23 10.41,-24.71 10.41,-40.41 0,-17.38 -4.55,-31.85 -13.63,-43.36 -9.11,-11.52 -21.43,-19.55 -37.02,-24.06 -9.16,-2.6 -25.82,-3.91 -49.98,-3.91 v -105.54 h -47.44 v 249.22" /><path
         id="path62"
         style="fill:#231f20;fill-opacity:1;fill-rule:nonzero;stroke:none"
         d="m 1414.68,3487.04 c -23.06,0 -42.46,-8.01 -58.18,-24.04 -15.7,-16.06 -23.58,-36.43 -23.58,-61.18 0,-27.55 9.91,-49.35 29.69,-65.39 15.37,-12.54 33.01,-18.8 52.91,-18.8 22.5,0 41.66,8.12 57.5,24.39 15.84,16.27 23.75,36.31 23.75,60.14 0,23.73 -7.97,43.8 -23.92,60.23 -15.94,16.45 -35.34,24.65 -58.17,24.65 z m 0.51,46.42 c 35.25,0 65.59,-12.75 90.96,-38.28 25.37,-25.52 38.06,-56.66 38.06,-93.36 0,-36.36 -12.52,-67.14 -37.55,-92.34 -25.04,-25.18 -55.41,-37.77 -91.14,-37.77 -37.4,0 -68.49,12.93 -93.24,38.79 -24.75,25.88 -37.13,56.6 -37.13,92.16 0,23.85 5.76,45.77 17.29,65.75 11.54,20 27.38,35.84 47.56,47.54 20.17,11.68 41.91,17.51 65.19,17.51" /><path
         id="path64"
         style="fill:#231f20;fill-opacity:1;fill-rule:nonzero;stroke:none"
         d="m 1713.65,3451.3 v -63.54 h 15.58 c 16.04,0 26.66,2.99 31.86,8.99 5.19,5.97 7.79,13.77 7.79,23.38 0,9.82 -2.75,17.48 -8.22,22.94 -5.49,5.49 -16.52,8.23 -33.13,8.23 z m -47.8,0 h -11.01 c -16.6,0 -27.66,-2.68 -33.2,-8.05 -5.53,-5.37 -8.31,-13.18 -8.31,-23.46 0,-12.09 3.36,-20.45 10.08,-25.08 6.72,-4.64 16.59,-6.95 29.57,-6.95 h 12.87 z m 47.8,75.9 v -32.19 h 10.49 c 59.88,0 89.8,-24.67 89.8,-74.05 0,-14 -2.34,-25.89 -7.03,-35.66 -4.69,-9.76 -11.58,-17.85 -20.66,-24.22 -9.11,-6.38 -18.48,-10.56 -28.13,-12.54 -9.67,-1.97 -24.49,-2.97 -44.47,-2.97 v -67.59 h -47.8 v 67.59 c -20.89,0 -38.02,2.09 -51.4,6.27 -13.4,4.18 -24.38,12.11 -32.97,23.81 -8.57,11.68 -12.87,26.35 -12.87,43.97 0,16.6 3.44,30.6 10.33,42.01 6.89,11.41 16.64,19.82 29.24,25.25 12.58,5.41 31.82,8.13 57.67,8.13 v 32.19 h 47.8" /><path
         id="path66"
         style="fill:#231f20;fill-opacity:1;fill-rule:nonzero;stroke:none"
         d="m 2031.99,3527.2 v -249.22 h -47.42 v 156.03 l -92.95,-156.03 h -41.25 v 249.22 h 47.44 v -161.12 l 94.2,161.12 h 39.98" /><path
         id="path68"
         style="fill:#231f20;fill-opacity:1;fill-rule:nonzero;stroke:none"
         d="m 2120.98,3322.41 h 3.81 c 5.4,0 8.77,0.21 10.08,0.63 1.31,0.4 2.33,1.13 3.09,2.17 0.76,1.03 1.13,2.22 1.13,3.54 0,1.3 -0.36,2.43 -1.1,3.43 -0.74,1 -1.79,1.72 -3.15,2.16 -1.37,0.42 -4.71,0.65 -10.05,0.65 h -3.81 z m -9.34,-26.2 v 46.12 h 9.34 c 8.77,0 13.68,-0.04 14.74,-0.12 3.1,-0.27 5.52,-0.88 7.22,-1.85 1.73,-0.96 3.17,-2.43 4.32,-4.41 1.17,-1.99 1.74,-4.19 1.74,-6.62 0,-3.32 -1.08,-6.16 -3.27,-8.53 -2.17,-2.36 -5.24,-3.82 -9.18,-4.4 1.41,-0.52 2.5,-1.1 3.24,-1.72 0.76,-0.63 1.8,-1.81 3.12,-3.55 0.35,-0.46 1.47,-2.32 3.4,-5.62 l 5.44,-9.3 h -11.57 l -3.85,7.48 c -2.61,5.02 -4.74,8.19 -6.44,9.48 -1.71,1.31 -3.87,1.96 -6.48,1.96 h -2.43 v -18.92 z m 19.65,58.17 c -5.97,0 -11.71,-1.5 -17.18,-4.47 -5.48,-3 -9.81,-7.29 -12.96,-12.86 -3.16,-5.62 -4.74,-11.47 -4.74,-17.58 0,-6.09 1.53,-11.89 4.62,-17.39 3.08,-5.54 7.39,-9.84 12.91,-12.94 5.52,-3.1 11.32,-4.63 17.35,-4.63 6.09,0 11.88,1.53 17.4,4.63 5.49,3.1 9.79,7.4 12.89,12.94 3.09,5.5 4.64,11.3 4.64,17.39 0,6.11 -1.57,11.96 -4.73,17.58 -3.16,5.57 -7.48,9.86 -12.99,12.86 -5.5,2.97 -11.24,4.47 -17.21,4.47 z m -0.06,8.48 c 7.43,0 14.58,-1.86 21.42,-5.58 6.85,-3.73 12.21,-9.05 16.12,-16 3.91,-6.94 5.86,-14.22 5.86,-21.81 0,-7.56 -1.9,-14.74 -5.75,-21.6 -3.84,-6.87 -9.18,-12.2 -16.03,-16.04 -6.87,-3.83 -14.08,-5.75 -21.62,-5.75 -7.57,0 -14.78,1.92 -21.64,5.75 -6.86,3.84 -12.2,9.17 -16.03,16.04 -3.84,6.86 -5.76,14.04 -5.76,21.6 0,7.59 1.95,14.87 5.88,21.81 3.9,6.95 9.27,12.27 16.12,16 6.83,3.72 13.97,5.58 21.43,5.58" /><path
         id="path70"
         style="fill:#231f20;fill-opacity:1;fill-rule:nonzero;stroke:none"
         d="m 2496.61,3718.97 c 47.81,-196.86 -98.01,-376.54 -245.05,-492.05 -153.83,-120.1 -335.6,-201.67 -523.81,-251.96 -188.38,-49.45 -386.69,-69.35 -579.77,-40.76 -184.585,27.54 -401.363,112.66 -452.957,309.15 l 16.075,3.91 c -43.532,183.91 95.117,360.27 239.871,475.03 150.681,119.15 329.721,201.64 515.781,253.15 186.22,50.83 382.7,72.48 574.97,46.53 184.03,-25.47 400.18,-105.47 459.96,-301.64 -55.96,197.71 -273.03,283.48 -458.35,312.42 -193.71,29.84 -392.63,11.71 -582.17,-36.24 -189.44,-48.73 -372.89,-128.74 -530.363,-248.48 -78.102,-60.17 -149.875,-131.1 -202.578,-217.04 -52.34,-84.41 -84.563,-190.92 -59.485,-294.05 l 16.075,3.92 c 23.187,-98.35 97.519,-176.26 182.472,-224.97 85.742,-49.61 182.109,-77.22 279.119,-92.09 194.96,-28.85 394.48,-8.75 584.04,40.99 189.39,50.62 372.32,132.63 527.63,253.88 147.98,116.58 297.76,298.4 248.7,503.02 l -10.16,-2.72" /><path
         id="path72"
         style="fill:#ffffff;fill-opacity:1;fill-rule:nonzero;stroke:none"
         d="m 1766.46,2169.94 -20.06,73.18 -23.77,-73.18 z m -15.27,90.76 70.15,-257.21 -8.75,-2.32 -39.53,144.59 h -58.26 l -14.94,-46.05 h -9.49 l 51.99,161.42 8.83,-0.43" /><path
         id="path74"
         style="fill:#ffffff;fill-opacity:1;fill-rule:nonzero;stroke:none"
         d="m 1804.17,2178.18 h 67.25 v -20.47 h -30.04 v -58.42 h -7.17 v 58.42 h -30.04 v 20.47" /><path
         id="path76"
         style="fill:#ffffff;fill-opacity:1;fill-rule:nonzero;stroke:none"
         d="m 1941.15,2149.63 c -1.49,5.84 -4.61,10.9 -9.36,15.19 -4.76,4.3 -10.25,6.43 -16.46,6.43 -6.21,0 -11.72,-2.13 -16.51,-6.43 -4.78,-4.29 -7.89,-9.35 -9.31,-15.19 z m -26.31,29.55 c 9.24,0 17.23,-3.56 23.96,-10.65 6.74,-7.09 10.45,-15.74 11.1,-25.91 h -3.79 v -0.16 h -57.44 c 0.17,-6.99 2.85,-12.6 8.04,-16.8 5.2,-4.2 11.41,-6.31 18.62,-6.31 6.05,0 11.42,1.51 16.13,4.53 4.71,3.03 7.87,7.13 9.53,12.31 h 8.83 c -0.61,-10.08 -3.83,-18.59 -9.65,-25.55 -5.84,-6.95 -14.28,-10.43 -25.33,-10.43 -11.72,0 -20.51,3.85 -26.37,11.58 -5.86,7.74 -8.79,17.06 -8.79,27.93 0,10.9 3.44,20.2 10.32,27.9 6.87,7.71 15.15,11.56 24.84,11.56" /><path
         id="path78"
         style="fill:#ffffff;fill-opacity:1;fill-rule:nonzero;stroke:none"
         d="m 1981.83,2178.18 h 42.5 v -78.89 h -7.58 v 58.42 h -28.14 c 0,-9.06 -0.51,-18.59 -1.49,-28.59 -0.99,-9.98 -3.47,-19.43 -7.42,-28.34 -0.45,-0.88 -1.99,-1.45 -4.63,-1.74 l -16.5,-0.23 v 20.37 h 14.69 c 0.27,-0.06 0.54,-0.08 0.82,-0.08 1.27,0 2.28,0.74 3.06,2.23 0.92,1.81 1.53,3.36 1.8,4.63 1.93,10.27 2.89,21.64 2.89,34.08 v 18.14" /><path
         id="path80"
         style="fill:#ffffff;fill-opacity:1;fill-rule:nonzero;stroke:none"
         d="m 2041.75,2170.68 v -50.92 h 33.83 c 7.27,0 11.33,2.43 12.23,7.27 0.37,2.19 0.56,4.14 0.56,5.86 0,2.09 -0.27,3.81 -0.82,5.19 -2.2,5.51 -5.25,10.2 -9.16,14.11 -4.02,3.9 -9.04,7.48 -15.06,10.7 -6.03,3.2 -13.22,5.8 -21.58,7.79 z m -7.18,86.97 h 7.18 v -79.62 c 15.69,-3.48 27.85,-8.91 36.53,-16.35 8.65,-7.42 14.53,-15.1 17.61,-23.03 1.82,-5 2.72,-9.84 2.72,-14.51 0,-0.51 0,-1 0,-1.49 -0.28,-5.29 -1.56,-9.82 -3.89,-13.61 -4,-6.6 -9.67,-9.9 -16.99,-9.9 -1.04,0 -2.11,0.04 -3.22,0.15 h -39.94 v 158.36" /><path
         id="path82"
         style="fill:#ffffff;fill-opacity:1;fill-rule:nonzero;stroke:none"
         d="m 2168.59,2149.63 c -1.49,5.84 -4.61,10.9 -9.38,15.19 -4.74,4.3 -10.23,6.43 -16.46,6.43 -6.21,0 -11.7,-2.13 -16.5,-6.43 -4.79,-4.29 -7.9,-9.35 -9.32,-15.19 z m -26.33,29.55 c 9.24,0 17.23,-3.56 23.99,-10.65 6.73,-7.09 10.42,-15.74 11.09,-25.91 h -3.81 v -0.16 h -57.42 c 0.15,-6.99 2.85,-12.6 8.05,-16.8 5.19,-4.2 11.38,-6.31 18.59,-6.31 6.05,0 11.44,1.51 16.13,4.53 4.71,3.03 7.89,7.13 9.53,12.31 h 8.85 c -0.6,-10.08 -3.83,-18.59 -9.67,-25.55 -5.82,-6.95 -14.27,-10.43 -25.33,-10.43 -11.72,0 -20.51,3.85 -26.37,11.58 -5.86,7.74 -8.79,17.06 -8.79,27.93 0,10.9 3.44,20.2 10.32,27.9 6.87,7.71 15.15,11.56 24.84,11.56" /><path
         id="path84"
         style="fill:#ffffff;fill-opacity:1;fill-rule:nonzero;stroke:none"
         d="m 867.008,2013.67 h 179.252 v -249.22 h -47.944 v 204.84 h -83.203 v -204.84 h -48.105 v 249.22" /><path
         id="path86"
         style="fill:#ffffff;fill-opacity:1;fill-rule:nonzero;stroke:none"
         d="m 1150.46,1916.25 h 15.08 c 11.86,0 20.1,0.86 24.73,2.56 4.63,1.7 8.28,4.49 10.94,8.41 2.63,3.91 3.96,8.64 3.96,14.18 0,9.65 -3.71,16.66 -11.17,21.1 -5.43,3.28 -15.47,4.92 -30.16,4.92 h -13.38 z m -47.44,97.42 h 50.31 c 27.23,0 46.86,-2.5 58.87,-7.54 12.03,-5.02 21.53,-13.14 28.48,-24.39 6.95,-11.23 10.41,-24.71 10.41,-40.41 0,-17.39 -4.55,-31.86 -13.63,-43.36 -9.11,-11.53 -21.43,-19.55 -37.02,-24.07 -9.16,-2.59 -25.82,-3.9 -49.98,-3.9 v -105.55 h -47.44 v 249.22" /><path
         id="path88"
         style="fill:#ffffff;fill-opacity:1;fill-rule:nonzero;stroke:none"
         d="m 1414.68,1973.51 c -23.06,0 -42.46,-8 -58.18,-24.04 -15.7,-16.05 -23.58,-36.43 -23.58,-61.17 0,-27.56 9.91,-49.36 29.69,-65.39 15.37,-12.54 33.01,-18.81 52.91,-18.81 22.5,0 41.66,8.12 57.5,24.39 15.84,16.27 23.75,36.31 23.75,60.14 0,23.73 -7.97,43.81 -23.92,60.24 -15.94,16.44 -35.34,24.64 -58.17,24.64 z m 0.51,46.43 c 35.25,0 65.59,-12.75 90.96,-38.28 25.37,-25.53 38.06,-56.66 38.06,-93.36 0,-36.37 -12.52,-67.15 -37.55,-92.34 -25.04,-25.18 -55.41,-37.78 -91.14,-37.78 -37.4,0 -68.49,12.93 -93.24,38.79 -24.75,25.88 -37.13,56.6 -37.13,92.17 0,23.85 5.76,45.76 17.29,65.74 11.54,20 27.38,35.84 47.56,47.54 20.17,11.68 41.91,17.52 65.19,17.52" /><path
         id="path90"
         style="fill:#ffffff;fill-opacity:1;fill-rule:nonzero;stroke:none"
         d="m 1713.65,1937.77 v -63.53 h 15.58 c 16.04,0 26.66,2.98 31.86,8.98 5.19,5.98 7.79,13.77 7.79,23.38 0,9.82 -2.75,17.48 -8.22,22.95 -5.49,5.49 -16.52,8.22 -33.13,8.22 z m -47.8,0 h -11.01 c -16.6,0 -27.66,-2.67 -33.2,-8.05 -5.53,-5.37 -8.31,-13.18 -8.31,-23.45 0,-12.09 3.36,-20.45 10.08,-25.08 6.72,-4.65 16.59,-6.95 29.57,-6.95 h 12.87 z m 47.8,75.9 v -32.19 h 10.49 c 59.88,0 89.8,-24.67 89.8,-74.04 0,-14 -2.34,-25.9 -7.03,-35.66 -4.69,-9.77 -11.58,-17.86 -20.66,-24.22 -9.11,-6.39 -18.48,-10.57 -28.13,-12.54 -9.67,-1.98 -24.49,-2.97 -44.47,-2.97 v -67.6 h -47.8 v 67.6 c -20.89,0 -38.02,2.09 -51.4,6.27 -13.4,4.18 -24.38,12.11 -32.97,23.81 -8.57,11.68 -12.87,26.34 -12.87,43.96 0,16.6 3.44,30.61 10.33,42.01 6.89,11.41 16.64,19.83 29.24,25.26 12.58,5.41 31.82,8.12 57.67,8.12 v 32.19 h 47.8" /><path
         id="path92"
         style="fill:#ffffff;fill-opacity:1;fill-rule:nonzero;stroke:none"
         d="m 2031.99,2013.67 v -249.22 h -47.42 v 156.04 l -92.95,-156.04 h -41.25 v 249.22 h 47.44 v -161.11 l 94.2,161.11 h 39.98" /><path
         id="path94"
         style="fill:#ffffff;fill-opacity:1;fill-rule:nonzero;stroke:none"
         d="m 2120.98,1808.88 h 3.81 c 5.4,0 8.77,0.21 10.08,0.63 1.31,0.4 2.33,1.13 3.09,2.18 0.76,1.02 1.13,2.21 1.13,3.53 0,1.3 -0.36,2.43 -1.1,3.43 -0.74,1.01 -1.79,1.73 -3.15,2.17 -1.37,0.42 -4.71,0.64 -10.05,0.64 h -3.81 z m -9.34,-26.2 v 46.13 h 9.34 c 8.77,0 13.68,-0.04 14.74,-0.13 3.1,-0.26 5.52,-0.88 7.22,-1.85 1.73,-0.95 3.17,-2.43 4.32,-4.41 1.17,-1.98 1.74,-4.19 1.74,-6.61 0,-3.32 -1.08,-6.16 -3.27,-8.54 -2.17,-2.36 -5.24,-3.81 -9.18,-4.39 1.41,-0.53 2.5,-1.1 3.24,-1.73 0.76,-0.62 1.8,-1.81 3.12,-3.54 0.35,-0.46 1.47,-2.33 3.4,-5.63 l 5.44,-9.3 h -11.57 l -3.85,7.48 c -2.61,5.02 -4.74,8.2 -6.44,9.49 -1.71,1.31 -3.87,1.96 -6.48,1.96 h -2.43 v -18.93 z m 19.65,58.18 c -5.97,0 -11.71,-1.51 -17.18,-4.48 -5.48,-2.99 -9.81,-7.29 -12.96,-12.86 -3.16,-5.61 -4.74,-11.46 -4.74,-17.57 0,-6.1 1.53,-11.9 4.62,-17.4 3.08,-5.53 7.39,-9.83 12.91,-12.94 5.52,-3.09 11.32,-4.63 17.35,-4.63 6.09,0 11.88,1.54 17.4,4.63 5.49,3.11 9.79,7.41 12.89,12.94 3.09,5.5 4.64,11.3 4.64,17.4 0,6.11 -1.57,11.96 -4.73,17.57 -3.16,5.57 -7.48,9.87 -12.99,12.86 -5.5,2.97 -11.24,4.48 -17.21,4.48 z m -0.06,8.47 c 7.43,0 14.58,-1.85 21.42,-5.57 6.85,-3.73 12.21,-9.05 16.12,-16.01 3.91,-6.93 5.86,-14.22 5.86,-21.8 0,-7.56 -1.9,-14.74 -5.75,-21.61 -3.84,-6.86 -9.18,-12.19 -16.03,-16.03 -6.87,-3.84 -14.08,-5.75 -21.62,-5.75 -7.57,0 -14.78,1.91 -21.64,5.75 -6.86,3.84 -12.2,9.17 -16.03,16.03 -3.84,6.87 -5.76,14.05 -5.76,21.61 0,7.58 1.95,14.87 5.88,21.8 3.9,6.96 9.27,12.28 16.12,16.01 6.83,3.72 13.97,5.57 21.43,5.57" /><path
         id="path96"
         style="fill:#ffffff;fill-opacity:1;fill-rule:nonzero;stroke:none"
         d="m 2496.61,2205.45 c 47.81,-196.87 -98.01,-376.55 -245.06,-492.05 -153.82,-120.1 -335.59,-201.68 -523.8,-251.98 -188.38,-49.45 -386.69,-69.34 -579.77,-40.76 -184.585,27.54 -401.363,112.68 -452.953,309.16 l 16.078,3.92 c -43.539,183.9 95.106,360.26 239.864,475.02 150.681,119.15 329.721,201.64 515.781,253.15 186.22,50.83 382.7,72.49 574.97,46.54 184.03,-25.48 400.18,-105.47 459.96,-301.65 -55.96,197.71 -273.03,283.48 -458.35,312.43 -193.71,29.83 -392.63,11.71 -582.18,-36.24 -189.43,-48.73 -372.89,-128.75 -530.357,-248.49 -78.098,-60.17 -149.871,-131.1 -202.574,-217.04 -52.344,-84.41 -84.563,-190.92 -59.481,-294.04 l 16.071,3.91 c 23.187,-98.35 97.519,-176.26 182.472,-224.98 85.739,-49.61 182.109,-77.22 279.119,-92.09 194.96,-28.84 394.48,-8.75 584.05,41 189.38,50.62 372.31,132.63 527.62,253.88 147.98,116.59 297.76,298.41 248.7,503.02 l -10.16,-2.71" /><path
         id="path98"
         style="fill:#ed1c24;fill-opacity:1;fill-rule:nonzero;stroke:none"
         d="m 5102.05,3718.97 c 47.8,-196.86 -98.01,-376.55 -245.06,-492.05 -153.82,-120.1 -335.6,-201.67 -523.81,-251.96 -188.37,-49.46 -386.68,-69.36 -579.77,-40.77 -184.59,27.54 -401.36,112.67 -452.95,309.16 l 16.08,3.91 c -43.54,183.91 95.11,360.28 239.86,475.03 150.68,119.15 329.73,201.64 515.79,253.15 186.22,50.83 382.7,72.48 574.97,46.53 184.03,-25.47 400.18,-105.47 459.96,-301.64 -55.96,197.71 -273.03,283.48 -458.36,312.42 -193.7,29.84 -392.62,11.71 -582.16,-36.24 -189.44,-48.72 -372.9,-128.74 -530.37,-248.48 -78.1,-60.16 -149.87,-131.1 -202.57,-217.04 -52.35,-84.41 -84.56,-190.92 -59.49,-294.05 l 16.08,3.92 c 23.18,-98.35 97.52,-176.26 182.47,-224.98 85.73,-49.61 182.11,-77.22 279.11,-92.09 194.96,-28.85 394.49,-8.75 584.05,41 189.39,50.62 372.32,132.63 527.63,253.88 147.98,116.58 297.74,298.4 248.69,503.02 l -10.15,-2.72" /><path
         id="path100"
         style="fill:#ed1c24;fill-opacity:1;fill-rule:nonzero;stroke:none"
         d="m 4371.89,3683.46 -20.06,73.19 -23.77,-73.19 z m -15.27,90.77 70.15,-257.21 -8.75,-2.32 -39.53,144.59 h -58.26 l -14.94,-46.06 h -9.49 l 51.99,161.43 8.83,-0.43" /><path
         id="path102"
         style="fill:#ed1c24;fill-opacity:1;fill-rule:nonzero;stroke:none"
         d="m 4409.6,3691.71 h 67.25 v -20.47 h -30.04 v -58.42 h -7.17 v 58.42 h -30.04 v 20.47" /><path
         id="path104"
         style="fill:#ed1c24;fill-opacity:1;fill-rule:nonzero;stroke:none"
         d="m 4546.58,3663.15 c -1.49,5.84 -4.61,10.9 -9.36,15.2 -4.76,4.29 -10.25,6.42 -16.46,6.42 -6.21,0 -11.72,-2.13 -16.51,-6.42 -4.78,-4.3 -7.89,-9.36 -9.31,-15.2 z m -26.31,29.55 c 9.24,0 17.23,-3.55 23.96,-10.64 6.74,-7.09 10.45,-15.74 11.1,-25.92 h -3.79 v -0.16 h -57.44 c 0.17,-6.99 2.85,-12.59 8.04,-16.79 5.2,-4.2 11.41,-6.31 18.62,-6.31 6.05,0 11.42,1.5 16.13,4.53 4.71,3.03 7.87,7.13 9.53,12.3 h 8.83 c -0.61,-10.07 -3.83,-18.59 -9.65,-25.54 -5.84,-6.96 -14.28,-10.43 -25.33,-10.43 -11.72,0 -20.51,3.85 -26.37,11.58 -5.86,7.73 -8.79,17.05 -8.79,27.93 0,10.9 3.44,20.2 10.31,27.89 6.88,7.72 15.16,11.56 24.85,11.56" /><path
         id="path106"
         style="fill:#ed1c24;fill-opacity:1;fill-rule:nonzero;stroke:none"
         d="m 4587.26,3691.71 h 42.5 v -78.89 h -7.58 v 58.42 h -28.14 c 0,-9.06 -0.51,-18.6 -1.49,-28.6 -0.99,-9.98 -3.47,-19.43 -7.42,-28.34 -0.45,-0.87 -1.99,-1.44 -4.63,-1.73 l -16.5,-0.24 v 20.37 h 14.69 c 0.27,-0.06 0.54,-0.07 0.82,-0.07 1.27,0 2.28,0.74 3.06,2.22 0.92,1.82 1.53,3.36 1.8,4.63 1.93,10.27 2.89,21.64 2.89,34.08 v 18.15" /><path
         id="path108"
         style="fill:#ed1c24;fill-opacity:1;fill-rule:nonzero;stroke:none"
         d="m 4647.18,3684.21 v -50.92 h 33.83 c 7.27,0 11.33,2.42 12.23,7.26 0.37,2.19 0.56,4.15 0.56,5.86 0,2.09 -0.27,3.81 -0.82,5.2 -2.2,5.51 -5.25,10.19 -9.16,14.1 -4.02,3.91 -9.04,7.48 -15.06,10.7 -6.03,3.21 -13.22,5.8 -21.58,7.8 z m -7.18,86.97 h 7.18 v -79.63 c 15.69,-3.48 27.85,-8.91 36.53,-16.35 8.65,-7.42 14.53,-15.09 17.61,-23.02 1.82,-5 2.72,-9.85 2.72,-14.52 0,-0.5 0,-0.99 0,-1.48 -0.28,-5.29 -1.56,-9.82 -3.89,-13.61 -4,-6.61 -9.67,-9.91 -16.99,-9.91 -1.04,0 -2.11,0.04 -3.22,0.16 H 4640 v 158.36" /><path
         id="path110"
         style="fill:#ed1c24;fill-opacity:1;fill-rule:nonzero;stroke:none"
         d="m 4774.02,3663.15 c -1.49,5.84 -4.61,10.9 -9.38,15.2 -4.74,4.29 -10.23,6.42 -16.46,6.42 -6.21,0 -11.7,-2.13 -16.51,-6.42 -4.78,-4.3 -7.89,-9.36 -9.31,-15.2 z m -26.33,29.55 c 9.24,0 17.23,-3.55 23.98,-10.64 6.74,-7.09 10.43,-15.74 11.1,-25.92 h -3.81 v -0.16 h -57.42 c 0.15,-6.99 2.85,-12.59 8.04,-16.79 5.2,-4.2 11.39,-6.31 18.6,-6.31 6.05,0 11.44,1.5 16.13,4.53 4.71,3.03 7.89,7.13 9.53,12.3 h 8.85 c -0.61,-10.07 -3.83,-18.59 -9.67,-25.54 -5.82,-6.96 -14.27,-10.43 -25.33,-10.43 -11.72,0 -20.51,3.85 -26.37,11.58 -5.86,7.73 -8.79,17.05 -8.79,27.93 0,10.9 3.44,20.2 10.32,27.89 6.87,7.72 15.15,11.56 24.84,11.56" /><path
         id="path112"
         style="fill:#ed1c24;fill-opacity:1;fill-rule:nonzero;stroke:none"
         d="m 3472.44,3527.2 h 179.25 v -249.22 h -47.94 v 204.84 h -83.21 v -204.84 h -48.1 v 249.22" /><path
         id="path114"
         style="fill:#ed1c24;fill-opacity:1;fill-rule:nonzero;stroke:none"
         d="m 3755.89,3429.77 h 15.08 c 11.86,0 20.1,0.86 24.73,2.56 4.63,1.7 8.28,4.49 10.94,8.42 2.63,3.91 3.96,8.63 3.96,14.18 0,9.65 -3.71,16.66 -11.17,21.09 -5.43,3.28 -15.47,4.93 -30.16,4.93 h -13.38 z m -47.44,97.43 h 50.31 c 27.23,0 46.86,-2.5 58.87,-7.54 12.03,-5.02 21.53,-13.15 28.48,-24.4 6.95,-11.23 10.41,-24.71 10.41,-40.41 0,-17.38 -4.55,-31.85 -13.63,-43.36 -9.11,-11.52 -21.43,-19.55 -37.02,-24.06 -9.16,-2.6 -25.82,-3.91 -49.98,-3.91 v -105.54 h -47.44 v 249.22" /><path
         id="path116"
         style="fill:#ed1c24;fill-opacity:1;fill-rule:nonzero;stroke:none"
         d="m 4020.11,3487.04 c -23.06,0 -42.46,-8.01 -58.18,-24.04 -15.7,-16.06 -23.58,-36.43 -23.58,-61.18 0,-27.55 9.91,-49.35 29.69,-65.39 15.37,-12.54 33.01,-18.8 52.91,-18.8 22.5,0 41.66,8.12 57.5,24.39 15.84,16.27 23.75,36.31 23.75,60.14 0,23.73 -7.97,43.8 -23.92,60.23 -15.94,16.45 -35.34,24.65 -58.17,24.65 z m 0.51,46.42 c 35.25,0 65.59,-12.75 90.96,-38.28 25.37,-25.52 38.06,-56.66 38.06,-93.36 0,-36.36 -12.52,-67.14 -37.56,-92.34 -25.03,-25.18 -55.41,-37.77 -91.13,-37.77 -37.4,0 -68.49,12.93 -93.24,38.79 -24.75,25.88 -37.13,56.6 -37.13,92.16 0,23.85 5.76,45.77 17.29,65.75 11.54,20 27.38,35.84 47.55,47.54 20.18,11.68 41.92,17.51 65.2,17.51" /><path
         id="path118"
         style="fill:#ed1c24;fill-opacity:1;fill-rule:nonzero;stroke:none"
         d="m 4319.08,3451.3 v -63.54 h 15.58 c 16.04,0 26.66,2.99 31.86,8.99 5.19,5.97 7.79,13.77 7.79,23.38 0,9.82 -2.75,17.48 -8.22,22.94 -5.49,5.49 -16.52,8.23 -33.13,8.23 z m -47.8,0 h -11.01 c -16.6,0 -27.66,-2.68 -33.2,-8.05 -5.53,-5.37 -8.31,-13.18 -8.31,-23.46 0,-12.09 3.36,-20.45 10.08,-25.08 6.72,-4.64 16.58,-6.95 29.57,-6.95 h 12.87 z m 47.8,75.9 v -32.19 h 10.49 c 59.88,0 89.8,-24.67 89.8,-74.05 0,-14 -2.34,-25.89 -7.03,-35.66 -4.69,-9.76 -11.58,-17.85 -20.67,-24.22 -9.1,-6.38 -18.47,-10.56 -28.12,-12.54 -9.67,-1.97 -24.49,-2.97 -44.47,-2.97 v -67.59 h -47.8 v 67.59 c -20.89,0 -38.02,2.09 -51.4,6.27 -13.4,4.18 -24.38,12.11 -32.97,23.81 -8.58,11.68 -12.87,26.35 -12.87,43.97 0,16.6 3.44,30.6 10.33,42.01 6.89,11.41 16.64,19.82 29.24,25.25 12.58,5.41 31.81,8.13 57.67,8.13 v 32.19 h 47.8" /><path
         id="path120"
         style="fill:#ed1c24;fill-opacity:1;fill-rule:nonzero;stroke:none"
         d="M 4637.42,3527.2 V 3277.98 H 4590 v 156.03 l -92.95,-156.03 h -41.25 v 249.22 h 47.44 v -161.12 l 94.2,161.12 h 39.98" /><path
         id="path122"
         style="fill:#ed1c24;fill-opacity:1;fill-rule:nonzero;stroke:none"
         d="m 4726.42,3322.41 h 3.81 c 5.39,0 8.77,0.21 10.08,0.63 1.31,0.4 2.32,1.13 3.08,2.17 0.77,1.03 1.14,2.22 1.14,3.54 0,1.3 -0.37,2.43 -1.1,3.43 -0.74,1 -1.79,1.72 -3.16,2.16 -1.37,0.42 -4.71,0.65 -10.04,0.65 h -3.81 z m -9.35,-26.2 v 46.12 h 9.35 c 8.77,0 13.67,-0.04 14.73,-0.12 3.1,-0.27 5.52,-0.88 7.22,-1.85 1.74,-0.96 3.17,-2.43 4.32,-4.41 1.17,-1.99 1.74,-4.19 1.74,-6.62 0,-3.32 -1.08,-6.16 -3.26,-8.53 -2.17,-2.36 -5.24,-3.82 -9.18,-4.4 1.4,-0.52 2.5,-1.1 3.24,-1.72 0.76,-0.63 1.8,-1.81 3.1,-3.55 0.36,-0.46 1.49,-2.32 3.42,-5.62 l 5.43,-9.3 h -11.56 l -3.85,7.48 c -2.61,5.02 -4.74,8.19 -6.44,9.48 -1.72,1.31 -3.87,1.96 -6.49,1.96 h -2.42 v -18.92 z m 19.66,58.17 c -5.97,0 -11.72,-1.5 -17.18,-4.47 -5.49,-3 -9.81,-7.29 -12.97,-12.86 -3.15,-5.62 -4.73,-11.47 -4.73,-17.58 0,-6.09 1.52,-11.89 4.61,-17.39 3.09,-5.54 7.4,-9.84 12.91,-12.94 5.53,-3.1 11.33,-4.63 17.36,-4.63 6.08,0 11.88,1.53 17.39,4.63 5.5,3.1 9.8,7.4 12.89,12.94 3.1,5.5 4.65,11.3 4.65,17.39 0,6.11 -1.57,11.96 -4.73,17.58 -3.17,5.57 -7.48,9.86 -12.99,12.86 -5.51,2.97 -11.25,4.47 -17.21,4.47 z m -0.07,8.48 c 7.44,0 14.59,-1.86 21.42,-5.58 6.86,-3.73 12.21,-9.05 16.13,-16 3.91,-6.94 5.86,-14.22 5.86,-21.81 0,-7.56 -1.91,-14.74 -5.76,-21.6 -3.83,-6.87 -9.18,-12.2 -16.03,-16.04 -6.86,-3.83 -14.07,-5.75 -21.62,-5.75 -7.56,0 -14.77,1.92 -21.63,5.75 -6.87,3.84 -12.2,9.17 -16.03,16.04 -3.85,6.86 -5.76,14.04 -5.76,21.6 0,7.59 1.95,14.87 5.88,21.81 3.9,6.95 9.27,12.27 16.11,16 6.84,3.72 13.98,5.58 21.43,5.58" /><path
         id="path124"
         style="fill:#4f4c4c;fill-opacity:1;fill-rule:nonzero;stroke:none"
         d="m 5102.05,2205.45 c 47.8,-196.87 -98.02,-376.55 -245.06,-492.05 -153.82,-120.1 -335.6,-201.67 -523.81,-251.97 -188.38,-49.46 -386.68,-69.35 -579.77,-40.77 -184.59,27.54 -401.36,112.68 -452.95,309.16 l 16.08,3.92 c -43.54,183.91 95.12,360.27 239.86,475.03 150.68,119.15 329.73,201.64 515.79,253.14 186.22,50.83 382.7,72.49 574.97,46.54 184.03,-25.48 400.18,-105.47 459.96,-301.65 -55.96,197.71 -273.03,283.48 -458.36,312.43 -193.7,29.83 -392.61,11.71 -582.16,-36.24 -189.44,-48.73 -372.9,-128.74 -530.37,-248.49 -78.1,-60.16 -149.87,-131.1 -202.57,-217.03 -52.35,-84.42 -84.56,-190.93 -59.49,-294.05 l 16.08,3.91 c 23.18,-98.35 97.51,-176.26 182.46,-224.98 85.74,-49.61 182.11,-77.22 279.12,-92.09 194.96,-28.85 394.49,-8.75 584.04,41.01 189.39,50.62 372.33,132.63 527.63,253.87 147.98,116.59 297.75,298.4 248.7,503.02 l -10.15,-2.71" /><path
         id="path126"
         style="fill:#4f4c4c;fill-opacity:1;fill-rule:nonzero;stroke:none"
         d="m 4371.89,2169.94 -20.06,73.18 -23.77,-73.18 z m -15.27,90.76 70.15,-257.21 -8.75,-2.32 -39.53,144.59 h -58.26 l -14.94,-46.05 h -9.49 l 51.99,161.42 8.83,-0.43" /><path
         id="path128"
         style="fill:#4f4c4c;fill-opacity:1;fill-rule:nonzero;stroke:none"
         d="m 4409.6,2178.18 h 67.25 v -20.47 h -30.04 v -58.42 h -7.17 v 58.42 h -30.04 v 20.47" /><path
         id="path130"
         style="fill:#4f4c4c;fill-opacity:1;fill-rule:nonzero;stroke:none"
         d="m 4546.58,2149.63 c -1.49,5.84 -4.61,10.9 -9.36,15.19 -4.76,4.3 -10.25,6.43 -16.46,6.43 -6.21,0 -11.72,-2.13 -16.51,-6.43 -4.78,-4.29 -7.89,-9.35 -9.31,-15.19 z m -26.31,29.55 c 9.24,0 17.23,-3.56 23.96,-10.65 6.74,-7.09 10.45,-15.74 11.1,-25.91 h -3.79 v -0.16 h -57.44 c 0.17,-6.99 2.85,-12.6 8.04,-16.8 5.2,-4.2 11.41,-6.31 18.62,-6.31 6.05,0 11.42,1.51 16.13,4.53 4.71,3.03 7.87,7.13 9.53,12.31 h 8.83 c -0.61,-10.08 -3.83,-18.59 -9.65,-25.55 -5.84,-6.95 -14.28,-10.43 -25.33,-10.43 -11.72,0 -20.51,3.85 -26.37,11.58 -5.86,7.74 -8.79,17.06 -8.79,27.93 0,10.9 3.44,20.2 10.31,27.9 6.88,7.71 15.16,11.56 24.85,11.56" /><path
         id="path132"
         style="fill:#4f4c4c;fill-opacity:1;fill-rule:nonzero;stroke:none"
         d="m 4587.26,2178.18 h 42.5 v -78.89 h -7.58 v 58.42 h -28.14 c 0,-9.06 -0.51,-18.59 -1.49,-28.59 -0.99,-9.98 -3.47,-19.43 -7.42,-28.34 -0.45,-0.88 -1.99,-1.45 -4.63,-1.74 l -16.5,-0.23 v 20.37 h 14.69 c 0.27,-0.06 0.54,-0.08 0.82,-0.08 1.27,0 2.28,0.74 3.06,2.23 0.92,1.81 1.53,3.36 1.8,4.63 1.93,10.27 2.89,21.64 2.89,34.08 v 18.14" /><path
         id="path134"
         style="fill:#4f4c4c;fill-opacity:1;fill-rule:nonzero;stroke:none"
         d="m 4647.18,2170.68 v -50.92 h 33.83 c 7.27,0 11.33,2.43 12.23,7.27 0.37,2.19 0.56,4.14 0.56,5.86 0,2.09 -0.27,3.81 -0.82,5.19 -2.2,5.51 -5.25,10.2 -9.16,14.11 -4.02,3.9 -9.04,7.48 -15.06,10.7 -6.03,3.2 -13.22,5.8 -21.58,7.79 z m -7.18,86.97 h 7.18 v -79.62 c 15.69,-3.48 27.85,-8.91 36.53,-16.35 8.65,-7.42 14.53,-15.1 17.61,-23.03 1.82,-5 2.72,-9.84 2.72,-14.51 0,-0.51 0,-1 0,-1.49 -0.28,-5.29 -1.56,-9.82 -3.89,-13.61 -4,-6.6 -9.67,-9.9 -16.99,-9.9 -1.04,0 -2.11,0.04 -3.22,0.15 H 4640 v 158.36" /><path
         id="path136"
         style="fill:#4f4c4c;fill-opacity:1;fill-rule:nonzero;stroke:none"
         d="m 4774.02,2149.63 c -1.49,5.84 -4.61,10.9 -9.38,15.19 -4.74,4.3 -10.23,6.43 -16.46,6.43 -6.21,0 -11.7,-2.13 -16.51,-6.43 -4.78,-4.29 -7.89,-9.35 -9.31,-15.19 z m -26.33,29.55 c 9.24,0 17.23,-3.56 23.98,-10.65 6.74,-7.09 10.43,-15.74 11.1,-25.91 h -3.81 v -0.16 h -57.42 c 0.15,-6.99 2.85,-12.6 8.04,-16.8 5.2,-4.2 11.39,-6.31 18.6,-6.31 6.05,0 11.44,1.51 16.13,4.53 4.71,3.03 7.89,7.13 9.53,12.31 h 8.85 c -0.61,-10.08 -3.83,-18.59 -9.67,-25.55 -5.82,-6.95 -14.27,-10.43 -25.33,-10.43 -11.72,0 -20.51,3.85 -26.37,11.58 -5.86,7.74 -8.79,17.06 -8.79,27.93 0,10.9 3.44,20.2 10.32,27.9 6.87,7.71 15.15,11.56 24.84,11.56" /><path
         id="path138"
         style="fill:#4f4c4c;fill-opacity:1;fill-rule:nonzero;stroke:none"
         d="m 3472.44,2013.67 h 179.25 v -249.22 h -47.94 v 204.84 h -83.21 v -204.84 h -48.1 v 249.22" /><path
         id="path140"
         style="fill:#4f4c4c;fill-opacity:1;fill-rule:nonzero;stroke:none"
         d="m 3755.89,1916.25 h 15.08 c 11.86,0 20.1,0.86 24.73,2.56 4.63,1.7 8.28,4.49 10.94,8.41 2.63,3.91 3.96,8.64 3.96,14.18 0,9.65 -3.71,16.66 -11.17,21.1 -5.43,3.28 -15.47,4.92 -30.16,4.92 h -13.38 z m -47.44,97.42 h 50.31 c 27.23,0 46.86,-2.5 58.87,-7.54 12.03,-5.02 21.53,-13.14 28.48,-24.39 6.95,-11.23 10.41,-24.71 10.41,-40.41 0,-17.39 -4.55,-31.86 -13.63,-43.36 -9.11,-11.53 -21.43,-19.55 -37.02,-24.07 -9.16,-2.59 -25.82,-3.9 -49.98,-3.9 v -105.55 h -47.44 v 249.22" /><path
         id="path142"
         style="fill:#4f4c4c;fill-opacity:1;fill-rule:nonzero;stroke:none"
         d="m 4020.11,1973.51 c -23.06,0 -42.46,-8 -58.18,-24.04 -15.7,-16.05 -23.58,-36.43 -23.58,-61.17 0,-27.56 9.91,-49.36 29.69,-65.39 15.37,-12.54 33.01,-18.81 52.91,-18.81 22.5,0 41.66,8.12 57.5,24.39 15.84,16.27 23.75,36.31 23.75,60.14 0,23.73 -7.97,43.81 -23.92,60.24 -15.94,16.44 -35.34,24.64 -58.17,24.64 z m 0.51,46.43 c 35.25,0 65.59,-12.75 90.96,-38.28 25.37,-25.53 38.06,-56.66 38.06,-93.36 0,-36.37 -12.52,-67.15 -37.56,-92.34 -25.03,-25.18 -55.41,-37.78 -91.13,-37.78 -37.4,0 -68.49,12.93 -93.24,38.79 -24.75,25.88 -37.13,56.6 -37.13,92.17 0,23.85 5.76,45.76 17.29,65.74 11.54,20 27.38,35.84 47.55,47.54 20.18,11.68 41.92,17.52 65.2,17.52" /><path
         id="path144"
         style="fill:#4f4c4c;fill-opacity:1;fill-rule:nonzero;stroke:none"
         d="m 4319.08,1937.77 v -63.53 h 15.58 c 16.04,0 26.66,2.98 31.86,8.98 5.19,5.98 7.79,13.77 7.79,23.38 0,9.82 -2.75,17.48 -8.22,22.95 -5.49,5.49 -16.52,8.22 -33.13,8.22 z m -47.8,0 h -11.01 c -16.6,0 -27.66,-2.67 -33.2,-8.05 -5.53,-5.37 -8.31,-13.18 -8.31,-23.45 0,-12.09 3.36,-20.45 10.08,-25.08 6.72,-4.65 16.58,-6.95 29.57,-6.95 h 12.87 z m 47.8,75.9 v -32.19 h 10.49 c 59.88,0 89.8,-24.67 89.8,-74.04 0,-14 -2.34,-25.9 -7.03,-35.66 -4.69,-9.77 -11.58,-17.86 -20.67,-24.22 -9.1,-6.39 -18.47,-10.57 -28.12,-12.54 -9.67,-1.98 -24.49,-2.97 -44.47,-2.97 v -67.6 h -47.8 v 67.6 c -20.89,0 -38.02,2.09 -51.4,6.27 -13.4,4.18 -24.38,12.11 -32.97,23.81 -8.58,11.68 -12.87,26.34 -12.87,43.96 0,16.6 3.44,30.61 10.33,42.01 6.89,11.41 16.64,19.83 29.24,25.26 12.58,5.41 31.81,8.12 57.67,8.12 v 32.19 h 47.8" /><path
         id="path146"
         style="fill:#4f4c4c;fill-opacity:1;fill-rule:nonzero;stroke:none"
         d="M 4637.42,2013.67 V 1764.45 H 4590 v 156.04 l -92.95,-156.04 h -41.25 v 249.22 h 47.44 v -161.11 l 94.2,161.11 h 39.98" /><path
         id="path148"
         style="fill:#4f4c4c;fill-opacity:1;fill-rule:nonzero;stroke:none"
         d="m 4726.42,1808.88 h 3.81 c 5.39,0 8.77,0.21 10.08,0.63 1.31,0.4 2.32,1.13 3.08,2.18 0.77,1.02 1.14,2.21 1.14,3.53 0,1.3 -0.37,2.43 -1.1,3.43 -0.74,1.01 -1.79,1.73 -3.16,2.17 -1.37,0.42 -4.71,0.64 -10.04,0.64 h -3.81 z m -9.35,-26.2 v 46.13 h 9.35 c 8.77,0 13.67,-0.04 14.73,-0.13 3.1,-0.26 5.52,-0.88 7.22,-1.85 1.74,-0.95 3.17,-2.43 4.32,-4.41 1.17,-1.98 1.74,-4.19 1.74,-6.61 0,-3.32 -1.08,-6.16 -3.26,-8.54 -2.17,-2.36 -5.24,-3.81 -9.18,-4.39 1.4,-0.53 2.5,-1.1 3.24,-1.73 0.76,-0.62 1.8,-1.81 3.1,-3.54 0.36,-0.46 1.49,-2.33 3.42,-5.63 l 5.43,-9.3 h -11.56 l -3.85,7.48 c -2.61,5.02 -4.74,8.2 -6.44,9.49 -1.72,1.31 -3.87,1.96 -6.49,1.96 h -2.42 v -18.93 z m 19.66,58.18 c -5.97,0 -11.72,-1.51 -17.18,-4.48 -5.49,-2.99 -9.81,-7.29 -12.97,-12.86 -3.15,-5.61 -4.73,-11.46 -4.73,-17.57 0,-6.1 1.52,-11.9 4.61,-17.4 3.09,-5.53 7.4,-9.83 12.91,-12.94 5.53,-3.09 11.33,-4.63 17.36,-4.63 6.08,0 11.88,1.54 17.39,4.63 5.5,3.11 9.8,7.41 12.89,12.94 3.1,5.5 4.65,11.3 4.65,17.4 0,6.11 -1.57,11.96 -4.73,17.57 -3.17,5.57 -7.48,9.87 -12.99,12.86 -5.51,2.97 -11.25,4.48 -17.21,4.48 z m -0.07,8.47 c 7.44,0 14.59,-1.85 21.42,-5.57 6.86,-3.73 12.21,-9.05 16.13,-16.01 3.91,-6.93 5.86,-14.22 5.86,-21.8 0,-7.56 -1.91,-14.74 -5.76,-21.61 -3.83,-6.86 -9.18,-12.19 -16.03,-16.03 -6.86,-3.84 -14.07,-5.75 -21.62,-5.75 -7.56,0 -14.77,1.91 -21.63,5.75 -6.87,3.84 -12.2,9.17 -16.03,16.03 -3.85,6.87 -5.76,14.05 -5.76,21.61 0,7.58 1.95,14.87 5.88,21.8 3.9,6.96 9.27,12.28 16.11,16.01 6.84,3.72 13.98,5.57 21.43,5.57" /><path
         id="path150"
         style="fill:#4f4c4c;fill-opacity:1;fill-rule:nonzero;stroke:none"
         d="m 5102.05,4989.1 c 47.8,-196.87 -98.02,-376.54 -245.06,-492.05 -153.82,-120.1 -335.6,-201.68 -523.81,-251.96 -188.38,-49.47 -386.68,-69.36 -579.77,-40.77 -184.59,27.54 -401.36,112.68 -452.95,309.16 l 16.08,3.92 c -43.54,183.91 95.11,360.27 239.86,475.03 150.68,119.15 329.73,201.64 515.79,253.14 186.22,50.83 382.7,72.48 574.97,46.53 184.03,-25.47 400.18,-105.47 459.96,-301.64 -55.96,197.7 -273.03,283.47 -458.36,312.42 -193.7,29.84 -392.61,11.71 -582.16,-36.23 -189.44,-48.73 -372.9,-128.74 -530.37,-248.49 -78.1,-60.16 -149.87,-131.1 -202.57,-217.03 -52.35,-84.41 -84.56,-190.93 -59.49,-294.05 l 16.08,3.91 c 23.18,-98.35 97.51,-176.26 182.46,-224.98 85.74,-49.61 182.11,-77.22 279.12,-92.09 194.96,-28.85 394.48,-8.75 584.04,41 189.39,50.62 372.33,132.63 527.63,253.87 147.98,116.59 297.75,298.41 248.7,503.03 l -10.15,-2.72" /><path
         id="path152"
         style="fill:#4f4c4c;fill-opacity:1;fill-rule:nonzero;stroke:none"
         d="m 4371.89,4953.6 -20.06,73.19 -23.77,-73.19 z m -15.27,90.76 70.15,-257.2 -8.75,-2.33 -39.53,144.59 h -58.26 l -14.94,-46.05 h -9.49 l 51.99,161.42 8.83,-0.43" /><path
         id="path154"
         style="fill:#ed1c24;fill-opacity:1;fill-rule:nonzero;stroke:none"
         d="m 4409.6,4961.84 h 67.25 v -20.46 h -30.04 v -58.42 h -7.17 v 58.42 h -30.04 v 20.46" /><path
         id="path156"
         style="fill:#ed1c24;fill-opacity:1;fill-rule:nonzero;stroke:none"
         d="m 4546.58,4933.29 c -1.49,5.84 -4.61,10.9 -9.36,15.19 -4.76,4.3 -10.25,6.43 -16.46,6.43 -6.21,0 -11.72,-2.13 -16.51,-6.43 -4.78,-4.29 -7.89,-9.35 -9.31,-15.19 z m -26.31,29.55 c 9.24,0 17.23,-3.55 23.96,-10.64 6.74,-7.09 10.45,-15.75 11.1,-25.92 h -3.79 v -0.16 h -57.44 c 0.17,-6.99 2.85,-12.6 8.04,-16.8 5.2,-4.19 11.41,-6.3 18.62,-6.3 6.05,0 11.42,1.5 16.13,4.53 4.71,3.02 7.87,7.13 9.53,12.3 h 8.83 c -0.61,-10.08 -3.83,-18.59 -9.65,-25.55 -5.84,-6.95 -14.28,-10.42 -25.33,-10.42 -11.72,0 -20.51,3.84 -26.37,11.58 -5.86,7.73 -8.79,17.05 -8.79,27.93 0,10.9 3.44,20.19 10.31,27.89 6.88,7.71 15.16,11.56 24.85,11.56" /><path
         id="path158"
         style="fill:#ed1c24;fill-opacity:1;fill-rule:nonzero;stroke:none"
         d="m 4587.26,4961.84 h 42.5 v -78.88 h -7.58 v 58.42 h -28.14 c 0,-9.07 -0.51,-18.6 -1.49,-28.6 -0.99,-9.98 -3.47,-19.43 -7.42,-28.34 -0.45,-0.88 -1.99,-1.44 -4.63,-1.74 l -16.5,-0.23 v 20.37 h 14.69 c 0.27,-0.06 0.54,-0.08 0.82,-0.08 1.27,0 2.28,0.74 3.06,2.23 0.92,1.81 1.53,3.36 1.8,4.63 1.93,10.27 2.89,21.64 2.89,34.08 v 18.14" /><path
         id="path160"
         style="fill:#ed1c24;fill-opacity:1;fill-rule:nonzero;stroke:none"
         d="m 4647.18,4954.34 v -50.91 h 33.83 c 7.27,0 11.33,2.42 12.23,7.26 0.37,2.19 0.56,4.14 0.56,5.86 0,2.09 -0.27,3.81 -0.82,5.2 -2.2,5.5 -5.25,10.19 -9.16,14.1 -4.02,3.9 -9.04,7.48 -15.06,10.7 -6.03,3.2 -13.22,5.8 -21.58,7.79 z m -7.18,86.98 h 7.18 v -79.63 c 15.69,-3.48 27.85,-8.91 36.53,-16.35 8.65,-7.42 14.53,-15.1 17.61,-23.03 1.82,-5 2.72,-9.84 2.72,-14.51 0,-0.51 0,-1 0,-1.48 -0.28,-5.3 -1.56,-9.83 -3.89,-13.62 -4,-6.6 -9.67,-9.9 -16.99,-9.9 -1.04,0 -2.11,0.04 -3.22,0.16 H 4640 v 158.36" /><path
         id="path162"
         style="fill:#ed1c24;fill-opacity:1;fill-rule:nonzero;stroke:none"
         d="m 4774.02,4933.29 c -1.49,5.84 -4.61,10.9 -9.38,15.19 -4.74,4.3 -10.23,6.43 -16.46,6.43 -6.21,0 -11.7,-2.13 -16.51,-6.43 -4.78,-4.29 -7.89,-9.35 -9.31,-15.19 z m -26.33,29.55 c 9.24,0 17.23,-3.55 23.98,-10.64 6.74,-7.09 10.43,-15.75 11.1,-25.92 h -3.81 v -0.16 h -57.42 c 0.15,-6.99 2.85,-12.6 8.04,-16.8 5.2,-4.19 11.39,-6.3 18.6,-6.3 6.05,0 11.44,1.5 16.13,4.53 4.71,3.02 7.89,7.13 9.53,12.3 h 8.85 c -0.61,-10.08 -3.83,-18.59 -9.67,-25.55 -5.82,-6.95 -14.27,-10.42 -25.33,-10.42 -11.72,0 -20.51,3.84 -26.37,11.58 -5.86,7.73 -8.79,17.05 -8.79,27.93 0,10.9 3.44,20.19 10.32,27.89 6.87,7.71 15.15,11.56 24.84,11.56" /><path
         id="path164"
         style="fill:#ed1c24;fill-opacity:1;fill-rule:nonzero;stroke:none"
         d="m 3472.44,4797.33 h 179.25 v -249.22 h -47.94 v 204.85 h -83.21 v -204.85 h -48.1 v 249.22" /><path
         id="path166"
         style="fill:#ed1c24;fill-opacity:1;fill-rule:nonzero;stroke:none"
         d="m 3755.89,4699.91 h 15.08 c 11.86,0 20.1,0.86 24.73,2.56 4.63,1.7 8.28,4.49 10.94,8.42 2.63,3.9 3.96,8.63 3.96,14.18 0,9.64 -3.71,16.66 -11.17,21.09 -5.43,3.28 -15.47,4.92 -30.16,4.92 h -13.38 z m -47.44,97.42 h 50.31 c 27.23,0 46.86,-2.5 58.87,-7.54 12.03,-5.02 21.53,-13.14 28.48,-24.39 6.95,-11.23 10.41,-24.71 10.41,-40.41 0,-17.38 -4.55,-31.86 -13.63,-43.36 -9.11,-11.52 -21.43,-19.55 -37.02,-24.06 -9.16,-2.6 -25.82,-3.91 -49.98,-3.91 v -105.55 h -47.44 v 249.22" /><path
         id="path168"
         style="fill:#4f4c4c;fill-opacity:1;fill-rule:nonzero;stroke:none"
         d="m 4020.11,4757.18 c -23.06,0 -42.46,-8.01 -58.18,-24.05 -15.7,-16.05 -23.58,-36.42 -23.58,-61.17 0,-27.56 9.91,-49.35 29.69,-65.39 15.37,-12.54 33.01,-18.81 52.91,-18.81 22.5,0 41.66,8.13 57.5,24.4 15.84,16.27 23.75,36.3 23.75,60.13 0,23.73 -7.97,43.81 -23.92,60.24 -15.94,16.44 -35.34,24.65 -58.17,24.65 z m 0.51,46.42 c 35.25,0 65.59,-12.75 90.96,-38.28 25.37,-25.53 38.06,-56.66 38.06,-93.36 0,-36.37 -12.52,-67.15 -37.56,-92.34 -25.03,-25.18 -55.41,-37.78 -91.13,-37.78 -37.4,0 -68.49,12.93 -93.24,38.79 -24.75,25.88 -37.13,56.6 -37.13,92.17 0,23.85 5.76,45.76 17.29,65.74 11.54,20 27.38,35.84 47.55,47.54 20.18,11.68 41.92,17.52 65.2,17.52" /><path
         id="path170"
         style="fill:#ed1c24;fill-opacity:1;fill-rule:nonzero;stroke:none"
         d="m 4319.08,4721.43 v -63.53 h 15.58 c 16.04,0 26.66,2.99 31.86,8.98 5.19,5.98 7.79,13.77 7.79,23.38 0,9.83 -2.75,17.48 -8.22,22.95 -5.49,5.49 -16.52,8.22 -33.13,8.22 z m -47.8,0 h -11.01 c -16.6,0 -27.66,-2.67 -33.2,-8.04 -5.53,-5.37 -8.31,-13.19 -8.31,-23.46 0,-12.09 3.36,-20.45 10.08,-25.08 6.72,-4.65 16.58,-6.95 29.57,-6.95 h 12.87 z m 47.8,75.9 v -32.19 h 10.49 c 59.88,0 89.8,-24.66 89.8,-74.04 0,-14 -2.34,-25.9 -7.03,-35.66 -4.69,-9.77 -11.58,-17.85 -20.67,-24.22 -9.1,-6.39 -18.47,-10.57 -28.12,-12.54 -9.67,-1.97 -24.49,-2.97 -44.47,-2.97 v -67.6 h -47.8 v 67.6 c -20.89,0 -38.02,2.09 -51.4,6.27 -13.4,4.18 -24.38,12.11 -32.97,23.81 -8.58,11.68 -12.87,26.35 -12.87,43.96 0,16.61 3.44,30.61 10.33,42.02 6.89,11.4 16.64,19.82 29.24,25.25 12.58,5.41 31.81,8.12 57.67,8.12 v 32.19 h 47.8" /><path
         id="path172"
         style="fill:#ed1c24;fill-opacity:1;fill-rule:nonzero;stroke:none"
         d="M 4637.42,4797.33 V 4548.11 H 4590 v 156.04 l -92.95,-156.04 h -41.25 v 249.22 h 47.44 v -161.11 l 94.2,161.11 h 39.98" /><path
         id="path174"
         style="fill:#ed1c24;fill-opacity:1;fill-rule:nonzero;stroke:none"
         d="m 4726.42,4592.55 h 3.81 c 5.39,0 8.77,0.19 10.08,0.62 1.31,0.39 2.32,1.13 3.08,2.17 0.77,1.04 1.14,2.23 1.14,3.54 0,1.3 -0.37,2.44 -1.1,3.43 -0.74,1 -1.79,1.72 -3.16,2.17 -1.37,0.41 -4.71,0.65 -10.04,0.65 h -3.81 z m -9.35,-26.21 v 46.13 h 9.35 c 8.77,0 13.67,-0.04 14.73,-0.14 3.1,-0.25 5.52,-0.88 7.22,-1.83 1.74,-0.96 3.17,-2.45 4.32,-4.42 1.17,-1.99 1.74,-4.2 1.74,-6.62 0,-3.32 -1.08,-6.15 -3.26,-8.53 -2.17,-2.37 -5.24,-3.81 -9.18,-4.4 1.4,-0.53 2.5,-1.09 3.24,-1.72 0.76,-0.62 1.8,-1.81 3.1,-3.55 0.36,-0.45 1.49,-2.33 3.42,-5.63 l 5.43,-9.29 h -11.56 l -3.85,7.48 c -2.61,5.02 -4.74,8.2 -6.44,9.49 -1.72,1.31 -3.87,1.95 -6.49,1.95 h -2.42 v -18.92 z m 19.66,58.18 c -5.97,0 -11.72,-1.5 -17.18,-4.47 -5.49,-3.01 -9.81,-7.31 -12.97,-12.87 -3.15,-5.61 -4.73,-11.47 -4.73,-17.58 0,-6.1 1.52,-11.9 4.61,-17.39 3.09,-5.54 7.4,-9.84 12.91,-12.94 5.53,-3.09 11.33,-4.63 17.36,-4.63 6.08,0 11.88,1.54 17.39,4.63 5.5,3.1 9.8,7.4 12.89,12.94 3.1,5.49 4.65,11.29 4.65,17.39 0,6.11 -1.57,11.97 -4.73,17.58 -3.17,5.56 -7.48,9.86 -12.99,12.87 -5.51,2.97 -11.25,4.47 -17.21,4.47 z m -0.07,8.48 c 7.44,0 14.59,-1.86 21.42,-5.59 6.86,-3.73 12.21,-9.04 16.13,-16 3.91,-6.93 5.86,-14.21 5.86,-21.81 0,-7.56 -1.91,-14.73 -5.76,-21.6 -3.83,-6.86 -9.18,-12.19 -16.03,-16.04 -6.86,-3.83 -14.07,-5.74 -21.62,-5.74 -7.56,0 -14.77,1.91 -21.63,5.74 -6.87,3.85 -12.2,9.18 -16.03,16.04 -3.85,6.87 -5.76,14.04 -5.76,21.6 0,7.6 1.95,14.88 5.88,21.81 3.9,6.96 9.27,12.27 16.11,16 6.84,3.73 13.98,5.59 21.43,5.59" /><g
         transform="scale(10)"
         id="g176"><text
           id="text180"
           style="font-variant:normal;font-weight:normal;font-size:16.90049934px;font-family:Geisha;-inkscape-font-specification:Geisha;writing-mode:lr-tb;fill:#ed1c24;fill-opacity:1;fill-rule:nonzero;stroke:none"
           transform="matrix(1,0,0,-1,148.729,80.382)"><tspan
             id="tspan178"
             y="0"
             x="0"></tspan></text>
</g><g
         transform="scale(10)"
         id="g182"><text
           id="text186"
           style="font-variant:normal;font-weight:normal;font-size:16.90049934px;font-family:Geisha;-inkscape-font-specification:Geisha;writing-mode:lr-tb;fill:#4f4c4c;fill-opacity:1;fill-rule:nonzero;stroke:none"
           transform="matrix(1,0,0,-1,159.473,80.382)"><tspan
             id="tspan184"
             y="0"
             x="0 7.7404289 15.596391 23.015711 30.483973"></tspan></text>
<text
           id="text190"
           style="font-variant:normal;font-weight:bold;font-size:34.69929886px;font-family:'Century Schoolbook L';-inkscape-font-specification:CenturyGothic-Bold;writing-mode:lr-tb;fill:#4f4c4c;fill-opacity:1;fill-rule:nonzero;stroke:none"
           transform="matrix(1,0,0,-1,63.5785,46.8718)"><tspan
             id="tspan188"
             y="0"
             x="0 19.433598">PR</tspan></text>
</g><g
         transform="scale(10)"
         id="g192"><text
           id="text196"
           style="font-variant:normal;font-weight:bold;font-size:34.69929886px;font-family:'Century Schoolbook L';-inkscape-font-specification:CenturyGothic-Bold;writing-mode:lr-tb;fill:#ed1c24;fill-opacity:1;fill-rule:nonzero;stroke:none"
           transform="matrix(1,0,0,-1,103.141,46.8719)"><tspan
             id="tspan194"
             y="0"
             x="0">O</tspan></text>
</g><g
         transform="scale(10)"
         id="g198"><text
           id="text202"
           style="font-variant:normal;font-weight:bold;font-size:34.69929886px;font-family:'Century Schoolbook L';-inkscape-font-specification:CenturyGothic-Bold;writing-mode:lr-tb;fill:#4f4c4c;fill-opacity:1;fill-rule:nonzero;stroke:none"
           transform="matrix(1,0,0,-1,132.282,46.8719)"><tspan
             id="tspan200"
             y="0"
             x="0 16.655664">FI</tspan></text>
</g></g></g></svg>