<svg width="248" height="152" viewBox="0 0 248 152" fill="none" xmlns="http://www.w3.org/2000/svg">
<path d="M245.549 43.5918C255.55 80.9505 209.627 125.693 142.973 143.542C76.3155 161.39 14.1759 145.588 4.17425 108.237C-5.82575 70.8798 40.0951 26.1318 106.749 8.28381C173.406 -9.56686 235.545 6.24381 245.549 43.5918" fill="white"/>
<path d="M244.873 43.773C251.247 70.021 231.805 93.9784 212.198 109.38C191.689 125.393 167.451 136.27 142.357 142.974C117.241 149.569 90.7994 152.222 65.0541 148.41C40.4436 144.738 11.5393 133.388 4.66118 107.19L6.80451 106.668C1.00025 82.1463 19.4862 58.6317 38.7873 43.3304C58.8768 27.4437 82.7501 16.445 107.558 9.57834C132.387 2.80101 158.585 -0.0869971 184.221 3.373C208.758 6.769 237.578 17.4357 245.549 43.5917C238.087 17.2317 209.145 5.7957 184.435 1.9357C158.607 -2.04163 132.085 0.374365 106.813 6.76903C81.5541 13.265 57.0928 23.933 36.0972 39.8983C25.6841 47.921 16.1144 57.3797 9.08731 68.837C2.10864 80.0917 -2.18775 94.293 1.15598 108.044L3.29931 107.522C6.39091 120.634 16.3013 131.024 27.6289 137.518C39.0608 144.133 51.9101 147.816 64.8434 149.797C90.8394 153.642 117.442 150.964 142.717 144.33C167.969 137.581 192.359 126.646 213.067 110.481C232.798 94.9357 252.769 70.693 246.227 43.4104L244.873 43.773" fill="#ED1C24"/>
<path d="M147.519 48.5078L144.845 38.7504L141.675 48.5078H147.519ZM145.483 36.4051L154.837 70.6998L153.67 71.0104L148.399 51.7317H140.631L138.639 57.8718H137.374L144.306 36.3477L145.483 36.4051Z" fill="#ED1C24"/>
<path d="M152.547 47.4077H161.514V50.1384H157.509V57.9263H156.553V50.1384H152.547V47.4077Z" fill="#4F4C4C"/>
<path d="M170.811 51.2158C170.613 50.4371 170.197 49.7624 169.563 49.1891C168.929 48.6171 168.197 48.3331 167.369 48.3331C166.541 48.3331 165.806 48.6171 165.167 49.1891C164.53 49.7624 164.115 50.4371 163.926 51.2158H170.811ZM167.303 47.2758C168.535 47.2758 169.601 47.7504 170.498 48.6944C171.397 49.6398 171.891 50.7944 171.978 52.1504H171.473V52.1718H163.814C163.837 53.1038 164.194 53.8504 164.886 54.4118C165.579 54.9718 166.407 55.2518 167.369 55.2518C168.175 55.2518 168.891 55.0518 169.519 54.6478C170.147 54.2451 170.569 53.6971 170.79 53.0078H171.967C171.886 54.3505 171.457 55.4865 170.681 56.4131C169.902 57.3411 168.777 57.8051 167.303 57.8051C165.741 57.8051 164.569 57.2917 163.787 56.2597C163.006 55.2291 162.615 53.9864 162.615 52.5358C162.615 51.0838 163.074 49.8438 163.991 48.8171C164.907 47.7891 166.011 47.2758 167.303 47.2758" fill="#4F4C4C"/>
<path d="M176.235 47.4077H181.902V57.9263H180.891V50.1384H177.139C177.139 51.3464 177.071 52.617 176.941 53.9504C176.809 55.281 176.478 56.541 175.951 57.729C175.891 57.8463 175.686 57.9224 175.334 57.961L173.134 57.9917V55.2757H175.093C175.129 55.2837 175.165 55.2864 175.202 55.2864C175.371 55.2864 175.506 55.1864 175.61 54.989C175.733 54.7464 175.814 54.541 175.85 54.3717C176.107 53.0024 176.235 51.4864 176.235 49.8277V47.4077" fill="#4F4C4C"/>
<path d="M184.225 48.4077V55.197H188.735C189.705 55.197 190.246 54.8743 190.366 54.229C190.415 53.937 190.441 53.677 190.441 53.4477C190.441 53.169 190.405 52.9397 190.331 52.7557C190.038 52.0197 189.631 51.3957 189.11 50.8744C188.574 50.3531 187.905 49.877 187.102 49.4477C186.298 49.0197 185.339 48.6744 184.225 48.4077V48.4077ZM183.267 36.8117H184.225V47.429C186.317 47.893 187.938 48.617 189.095 49.609C190.249 50.5984 191.033 51.6224 191.443 52.6797C191.686 53.3464 191.806 53.9917 191.806 54.6144C191.806 54.681 191.806 54.7464 191.806 54.8117C191.769 55.517 191.598 56.1224 191.287 56.6277C190.754 57.5077 189.998 57.9477 189.022 57.9477C188.883 57.9477 188.741 57.9423 188.593 57.9263H183.267V36.8117" fill="#4F4C4C"/>
<path d="M201.137 51.2158C200.938 50.4371 200.522 49.7624 199.886 49.1891C199.254 48.6171 198.522 48.3331 197.691 48.3331C196.863 48.3331 196.131 48.6171 195.491 49.1891C194.853 49.7624 194.438 50.4371 194.249 51.2158H201.137ZM197.626 47.2758C198.858 47.2758 199.923 47.7504 200.825 48.6944C201.722 49.6398 202.214 50.7944 202.303 52.1504H201.795V52.1718H194.139C194.159 53.1038 194.519 53.8504 195.213 54.4118C195.905 54.9718 196.73 55.2518 197.691 55.2518C198.498 55.2518 199.217 55.0518 199.842 54.6478C200.47 54.2451 200.894 53.6971 201.113 53.0078H202.293C202.213 54.3505 201.782 55.4865 201.003 56.4131C200.227 57.3411 199.101 57.8051 197.626 57.8051C196.063 57.8051 194.891 57.2917 194.11 56.2597C193.329 55.2291 192.938 53.9864 192.938 52.5358C192.938 51.0838 193.397 49.8438 194.314 48.8171C195.23 47.7891 196.334 47.2758 197.626 47.2758" fill="#4F4C4C"/>
<path d="M27.5925 69.3438H51.4928V102.573H45.1002V75.2597H34.0065V102.573H27.5925V69.3438" fill="#4F4C4C"/>
<path d="M65.3861 82.3331H67.3968C68.9781 82.3331 70.0768 82.2184 70.6941 81.9917C71.3114 81.7651 71.7981 81.3931 72.1528 80.8691C72.5034 80.3478 72.6808 79.7184 72.6808 78.9784C72.6808 77.6917 72.1861 76.7571 71.1914 76.1664C70.4674 75.7291 69.1288 75.5104 67.1701 75.5104H65.3861V82.3331ZM59.0608 69.3438H65.7688C69.3994 69.3438 72.0168 69.6771 73.6181 70.3477C75.2221 71.0171 76.4888 72.1011 77.4154 73.6011C78.3421 75.0984 78.8034 76.8957 78.8034 78.9891C78.8034 81.3064 78.1968 83.2357 76.9861 84.7704C75.7714 86.3064 74.1287 87.3771 72.0501 87.9784C70.8287 88.3251 68.6074 88.4998 65.3861 88.4998V102.573H59.0608V69.3438" fill="#4F4C4C"/>
<path d="M100.615 74.697C97.5408 74.697 94.9541 75.765 92.8581 77.9024C90.7648 80.0437 89.7142 82.7596 89.7142 86.0596C89.7142 89.7343 91.0355 92.6397 93.6728 94.7783C95.7221 96.4503 98.0741 97.2863 100.727 97.2863C103.727 97.2863 106.282 96.2024 108.394 94.033C110.506 91.8637 111.561 89.1917 111.561 86.0157C111.561 82.8504 110.498 80.1743 108.371 77.9837C106.246 75.7917 103.659 74.697 100.615 74.697V74.697ZM100.683 68.5077C105.383 68.5077 109.429 70.2077 112.811 73.6117C116.194 77.0143 117.886 81.1663 117.886 86.0596C117.886 90.909 116.217 95.013 112.879 98.3717C109.541 101.729 105.491 103.409 100.727 103.409C95.7408 103.409 91.5955 101.685 88.2955 98.237C84.9955 94.7863 83.3448 90.6903 83.3448 85.9477C83.3448 82.7677 84.1128 79.8463 85.6501 77.181C87.1888 74.5143 89.3008 72.4024 91.9915 70.8437C94.6808 69.2864 97.5795 68.5077 100.683 68.5077" fill="#ED1C24"/>
<path d="M140.478 79.4624V87.9344H142.555C144.694 87.9344 146.11 87.5357 146.803 86.7371C147.495 85.9397 147.842 84.9011 147.842 83.6197C147.842 82.3091 147.475 81.289 146.746 80.5597C146.014 79.8277 144.543 79.4624 142.329 79.4624H140.478ZM134.105 79.4624H132.637C130.423 79.4624 128.949 79.8198 128.21 80.5358C127.473 81.2518 127.102 82.2944 127.102 83.6638C127.102 85.2758 127.55 86.3904 128.446 87.0078C129.342 87.6278 130.658 87.9344 132.389 87.9344H134.105V79.4624ZM140.478 69.3438V73.6344H141.877C149.861 73.6344 153.85 76.9238 153.85 83.5078C153.85 85.3744 153.538 86.961 152.913 88.2624C152.287 89.565 151.369 90.6424 150.158 91.4917C148.943 92.3437 147.694 92.9011 146.407 93.1637C145.118 93.4264 143.142 93.5597 140.478 93.5597V102.573H134.105V93.5597C131.319 93.5597 129.035 93.281 127.251 92.7237C125.465 92.1664 124.001 91.1091 122.855 89.5491C121.713 87.9918 121.139 86.0357 121.139 83.6864C121.139 81.4731 121.598 79.6064 122.517 78.0851C123.435 76.5651 124.735 75.4424 126.415 74.7184C128.093 73.9971 130.658 73.6344 134.105 73.6344V69.3438H140.478" fill="#4F4C4C"/>
<path d="M182.923 69.3438V102.573H176.601V81.7677L164.207 102.573H158.707V69.3438H165.033V90.8251L177.593 69.3438H182.923" fill="#4F4C4C"/>
<path d="M194.789 96.6477H195.297C196.017 96.6477 196.466 96.621 196.641 96.565C196.815 96.5117 196.951 96.4144 197.053 96.2744C197.154 96.137 197.203 95.9784 197.203 95.8024C197.203 95.6304 197.155 95.4784 197.057 95.3464C196.958 95.2117 196.818 95.1156 196.637 95.057C196.454 95.001 196.009 94.9703 195.297 94.9703H194.789V96.6477ZM193.543 100.141V93.9917H194.789C195.958 93.9917 196.613 93.997 196.754 94.009C197.167 94.0437 197.49 94.1263 197.717 94.2543C197.947 94.3823 198.139 94.5797 198.293 94.8437C198.449 95.1077 198.525 95.4023 198.525 95.725C198.525 96.1677 198.381 96.5463 198.089 96.8623C197.799 97.1783 197.39 97.3717 196.865 97.449C197.053 97.5197 197.198 97.5957 197.297 97.6797C197.398 97.7624 197.537 97.9197 197.713 98.1517C197.759 98.213 197.909 98.4624 198.166 98.9024L198.891 100.141H197.349L196.835 99.1437C196.487 98.4744 196.203 98.0517 195.977 97.8797C195.749 97.705 195.461 97.6184 195.113 97.6184H194.789V100.141H193.543ZM196.163 92.385C195.367 92.385 194.602 92.585 193.873 92.981C193.142 93.381 192.565 93.9543 192.145 94.6957C191.723 95.445 191.513 96.225 191.513 97.0397C191.513 97.853 191.717 98.6263 192.129 99.3583C192.539 100.097 193.114 100.67 193.85 101.084C194.586 101.497 195.359 101.701 196.163 101.701C196.975 101.701 197.747 101.497 198.483 101.084C199.215 100.67 199.789 100.097 200.202 99.3583C200.614 98.6263 200.821 97.853 200.821 97.0397C200.821 96.225 200.611 95.445 200.19 94.6957C199.769 93.9543 199.193 93.381 198.458 92.981C197.725 92.585 196.959 92.385 196.163 92.385ZM196.155 91.2543C197.146 91.2543 198.099 91.5023 199.011 91.9983C199.925 92.4957 200.639 93.205 201.161 94.133C201.682 95.057 201.942 96.0277 201.942 97.0397C201.942 98.0477 201.689 99.005 201.175 99.9197C200.663 100.836 199.951 101.546 199.038 102.058C198.122 102.57 197.161 102.825 196.155 102.825C195.146 102.825 194.185 102.57 193.27 102.058C192.355 101.546 191.643 100.836 191.133 99.9197C190.621 99.005 190.365 98.0477 190.365 97.0397C190.365 96.0277 190.625 95.057 191.149 94.133C191.669 93.205 192.385 92.4957 193.298 91.9983C194.209 91.5023 195.161 91.2543 196.155 91.2543" fill="#4F4C4C"/>
</svg>
